<?xml version="1.0" encoding="UTF-8" standalone="no"?>
<svg
   xmlns:dc="http://purl.org/dc/elements/1.1/"
   xmlns:cc="http://creativecommons.org/ns#"
   xmlns:rdf="http://www.w3.org/1999/02/22-rdf-syntax-ns#"
   xmlns:svg="http://www.w3.org/2000/svg"
   xmlns="http://www.w3.org/2000/svg"
   xmlns:sodipodi="http://sodipodi.sourceforge.net/DTD/sodipodi-0.dtd"
   xmlns:inkscape="http://www.inkscape.org/namespaces/inkscape"
   enable-background="new 0 0 1060.248 1719.822"
   version="1.1"
   viewBox="0 0 1060.248 1719.822"
   xml:space="preserve"
   id="svg4459"
   sodipodi:docname="zombie2.svg"
   inkscape:version="0.92.2 (5c3e80d, 2017-08-06)"><metadata
     id="metadata4465"><rdf:RDF><cc:Work
         rdf:about=""><dc:format>image/svg+xml</dc:format><dc:type
           rdf:resource="http://purl.org/dc/dcmitype/StillImage" /><dc:title /></cc:Work></rdf:RDF></metadata><defs
     id="defs4463" /><sodipodi:namedview
     pagecolor="#ffffff"
     bordercolor="#666666"
     borderopacity="1"
     objecttolerance="10"
     gridtolerance="10"
     guidetolerance="10"
     inkscape:pageopacity="0"
     inkscape:pageshadow="2"
     inkscape:window-width="1920"
     inkscape:window-height="1061"
     id="namedview4461"
     showgrid="false"
     inkscape:zoom="0.51865832"
     inkscape:cx="201.39123"
     inkscape:cy="859.91101"
     inkscape:window-x="-4"
     inkscape:window-y="-4"
     inkscape:window-maximized="1"
     inkscape:current-layer="svg4459" /><style
     type="text/css"
     id="style4083">
	.st0{stroke:#000000;stroke-width:3.5065;}
	.st1{fill:#703838;stroke:#703838;stroke-width:3.5065;}
	.st2{fill:#9C5050;stroke:#9C5050;stroke-width:3.5065;}
	.st3{fill:#804040;stroke:#804040;stroke-width:3.5065;}
	.st4{fill:#773C3C;stroke:#773C3C;stroke-width:3.5065;}
	.st5{fill:#783C3C;stroke:#783C3C;stroke-width:3.5065;}
	.st6{opacity:0.65;stroke:#000000;stroke-width:3.5065;enable-background:new    ;}
	.st7{fill:#522A2A;stroke:#522A2A;stroke-width:3.5065;}
	.st8{fill:#663333;stroke:#663333;stroke-width:3.5065;}
	.st9{fill:#5B2E2E;stroke:#5B2E2E;stroke-width:3.5065;}
	.st10{fill:#673333;stroke:#673333;stroke-width:3.5065;}
	.st11{opacity:0.41;stroke:#000000;stroke-width:3.5065;enable-background:new    ;}
	.st12{fill:#6E3737;stroke:#6E3737;stroke-width:3.5065;}
	.st13{fill:#6F3838;stroke:#6F3838;stroke-width:3.5065;}
	.st14{fill:#55A2A2;stroke:#55A2A2;stroke-width:3.5065;}
	.st15{fill:#438383;stroke:#438383;stroke-width:3.5065;}
	.st16{fill:#8A4747;stroke:#8A4747;stroke-width:3.5065;}
	.st17{fill:#509A9A;stroke:#509A9A;stroke-width:3.5065;}
	.st18{fill:#3C7676;stroke:#3C7676;stroke-width:3.5065;}
	.st19{fill:#5BADAD;stroke:#5BADAD;stroke-width:3.5065;}
	.st20{fill:#5CAEAE;stroke:#5CAEAE;stroke-width:3.5065;}
	.st21{fill:#4F9A9A;stroke:#4F9A9A;stroke-width:3.5065;}
	.st22{fill:#284C4C;stroke:#284C4C;stroke-width:3.5065;}
	.st23{fill:#326060;stroke:#326060;stroke-width:3.5065;}
	.st24{fill:#3A6F6F;stroke:#3A6F6F;stroke-width:3.5065;}
	.st25{fill:#FFFFFF;stroke:#FFFFFF;stroke-width:3.5065;}
	.st26{fill:#4A9191;stroke:#4A9191;stroke-width:3.5065;}
	.st27{fill:#E6E6E6;stroke:#E6E6E6;stroke-width:3.5065;}
	.st28{fill:#458989;stroke:#458989;stroke-width:3.5065;}
	.st29{fill:#305C5C;stroke:#305C5C;stroke-width:3.5065;}
	.st30{fill:#DE4256;stroke:#DE4256;stroke-width:3.5065;}
	.st31{fill:#FFF6DF;stroke:#FFF6DF;stroke-width:3.5065;}
	.st32{fill:#6E141B;stroke:#6E141B;stroke-width:3.5065;}
	.st33{fill:#A01D28;stroke:#A01D28;stroke-width:3.5065;}
	.st34{fill:#A29C8F;stroke:#A29C8F;stroke-width:3.5065;}
	.st35{fill:#B4202D;stroke:#B4202D;stroke-width:3.5065;}
	.st36{fill:#9A1C27;stroke:#9A1C27;stroke-width:3.5065;}
	.st37{fill:#FE6501;stroke:#FE6501;stroke-width:3.5065;}
	.st38{fill:#681319;stroke:#681319;stroke-width:3.5065;}
	.st39{fill:#CA2433;stroke:#CA2433;stroke-width:3.5065;}
	.st40{fill:#BA212F;stroke:#BA212F;stroke-width:3.5065;}
	.st41{fill:#FF6600;stroke:#FF6600;stroke-width:3.5065;}
	.st42{fill:#DF4757;stroke:#DF4757;stroke-width:3.5065;}
	.st43{fill:#DF4656;stroke:#DF4656;stroke-width:3.5065;}
	.st44{fill:#B9212E;stroke:#B9212E;stroke-width:3.5065;}
	.st45{fill:#E15261;stroke:#E15261;stroke-width:3.5065;}
	.st46{fill:#E87582;stroke:#E87582;stroke-width:3.5065;}
	.st47{opacity:0.55;stroke:#000000;stroke-width:3.5065;enable-background:new    ;}
	.st48{fill:#57A6A6;stroke:#57A6A6;stroke-width:3.5065;}
	.st49{fill:#439494;stroke:#439494;stroke-width:3.5065;}
	.st50{opacity:0.56;stroke:#000000;stroke-width:3.5065;enable-background:new    ;}
	.st51{fill:#357C7C;stroke:#357C7C;stroke-width:3.5065;}
	.st52{fill:#378080;stroke:#378080;stroke-width:3.5065;}
	.st53{fill:#306161;stroke:#306161;stroke-width:3.5065;}
	.st54{opacity:0.46;stroke:#000000;stroke-width:3.5065;enable-background:new    ;}
	.st55{fill:#419090;stroke:#419090;stroke-width:3.5065;}
	.st56{fill:#58A8A8;stroke:#58A8A8;stroke-width:3.5065;}
	.st57{fill:#4D9696;stroke:#4D9696;stroke-width:3.5065;}
	.st58{fill:#203E3E;stroke:#203E3E;stroke-width:3.5065;}
	.st59{fill:#408E8E;stroke:#408E8E;stroke-width:3.5065;}
	.st60{fill:#56A4A4;stroke:#56A4A4;stroke-width:3.5065;}
	.st61{fill:#276161;stroke:#276161;stroke-width:3.5065;}
	.st62{fill:#3A7070;stroke:#3A7070;stroke-width:3.5065;}
	.st63{fill:#317676;stroke:#317676;stroke-width:3.5065;}
	.st64{fill:#3D7676;stroke:#3D7676;stroke-width:3.5065;}
	.st65{fill:#337979;stroke:#337979;stroke-width:3.5065;}
	.st66{fill:#307070;stroke:#307070;stroke-width:3.5065;}
	.st67{fill:#468686;stroke:#468686;stroke-width:3.5065;}
	.st68{fill:#306262;stroke:#306262;stroke-width:3.5065;}
	.st69{fill:#6497FD;stroke:#6497FD;stroke-width:3.5065;}
	.st70{fill:#00297C;stroke:#00297C;stroke-width:3.5065;}
	.st71{fill:#307575;stroke:#307575;stroke-width:3.5065;}
	.st72{fill:#3D7474;stroke:#3D7474;stroke-width:3.5065;}
	.st73{fill:#02369D;stroke:#02369D;stroke-width:3.5065;}
	.st74{fill:#0B44B5;stroke:#0B44B5;stroke-width:3.5065;}
	.st75{fill:#1958D6;stroke:#1958D6;stroke-width:3.5065;}
	.st76{fill:#124DC4;stroke:#124DC4;stroke-width:3.5065;}
	.st77{fill:#2264E9;stroke:#2264E9;stroke-width:3.5065;}
	.st78{fill:#1B5AD9;stroke:#1B5AD9;stroke-width:3.5065;}
	.st79{fill:#2265EC;stroke:#2265EC;stroke-width:3.5065;}
	.st80{fill:#104AC0;stroke:#104AC0;stroke-width:3.5065;}
	.st81{fill:#2B71FF;stroke:#2B71FF;stroke-width:3.5065;}
	.st82{fill:#507FDE;stroke:#507FDE;stroke-width:3.5065;}
	.st83{fill:#3B7272;stroke:#3B7272;stroke-width:3.5065;}
	.st84{fill:#0F49BE;stroke:#0F49BE;stroke-width:3.5065;}
	.st85{fill:#1C5CDE;stroke:#1C5CDE;stroke-width:3.5065;}
	.st86{fill:#185C5C;stroke:#185C5C;stroke-width:3.5065;}
	.st87{fill:#112B62;stroke:#112B62;stroke-width:3.5065;}
	.st88{fill:#0F4949;stroke:#0F4949;stroke-width:3.5065;}
	.st89{fill:#226C6C;stroke:#226C6C;stroke-width:3.5065;}
	.st90{fill:#2A7979;stroke:#2A7979;stroke-width:3.5065;}
	.st91{fill:#4E9898;stroke:#4E9898;stroke-width:3.5065;}
	.st92{fill:#56A5A5;stroke:#56A5A5;stroke-width:3.5065;}
	.st93{fill:#0D4343;stroke:#0D4343;stroke-width:3.5065;}
	.st94{fill:#386B6B;stroke:#386B6B;stroke-width:3.5065;}
	.st95{fill:#0F4646;stroke:#0F4646;stroke-width:3.5065;}
	.st96{fill:#3D7777;stroke:#3D7777;stroke-width:3.5065;}
	.st97{fill:#0E4545;stroke:#0E4545;stroke-width:3.5065;}
	.st98{fill:#3B7373;stroke:#3B7373;stroke-width:3.5065;}
	.st99{fill:#D2D2D2;stroke:#D2D2D2;stroke-width:3.5065;}
	.st100{fill:#B9B9B9;stroke:#B9B9B9;stroke-width:3.5065;}
	.st101{fill:#D42200;stroke:#D42200;stroke-width:3.5065;}
	.st102{fill:#A90000;stroke:#A90000;stroke-width:3.5065;}
	.st103{fill:#BA0000;stroke:#BA0000;stroke-width:3.5065;}
	.st104{fill:#8D0000;stroke:#8D0000;stroke-width:3.5065;}
	.st105{fill:#CCCCCC;stroke:#CCCCCC;stroke-width:3.5065;}
	.st106{fill:#9F9F9F;stroke:#9F9F9F;stroke-width:3.5065;}
	.st107{fill:#9C0000;stroke:#9C0000;stroke-width:3.5065;}
</style><path
     id="path4085"
     style="stroke:#000000;stroke-width:3.50650001"
     d="m 351.49402,335.57868 c -28.01652,44.04625 -54.84105,89.80435 -83.10351,134.05665 -44.325,-1.824 -88.858,-0.14155 -133.25,-0.81055 -5.891,-0.702 -11.29213,2.1393 -17.07813,2.2793 48.912,0.211 97.90056,0.35436 146.85156,-0.0684 0.912,0.772 2.8048,2.27962 3.7168,3.01562 -36.289,1.859 -72.72278,0.21097 -109.05078,0.87695 -11.046,0.456 -22.72241,-2.10368 -33.06641,2.94532 28.088,15.359 58.41868,27.38729 85.13868,44.77929 -26.789,11.922 -53.05266,25.07154 -79.59766,37.51954 -3.401,0.807 -8.48563,2.98223 -5.89063,7.36523 20.794,1.332 41.62325,5.08316 62.03125,8.66016 -0.632,1.508 -1.85923,4.48809 -2.49023,5.99609 -26.229,33.099 -37.06505,75.38816 -41.62305,116.66016 -4.138,46.739 -8.27729,94.18362 -1.40429,140.89062 0.281,15.955 6.97823,32.08331 5.36523,47.65235 -62.872,10.76999 -107.579804,80.40515 -89.41602,141.91019 9.99403,40.325 43.48102,73.5671 83.66602,83.7011 16.76616,4.5298 34.22615,3.7987 51.25,1.1719 1.85053,-1.4485 4.23382,-2.3499 6.77539,-2.3574 1.12439,-0 2.28009,0.1922 3.43359,0.5683 2.44874,-0.4744 4.8858,-0.9703 7.30274,-1.4863 -0.97545,1.3335 -1.97003,2.6568 -2.97461,3.9746 0.94976,0.819 1.8701,1.8015 2.73437,3.0039 1.19881,1.6679 2.37268,3.233 3.50391,4.8028 0.71757,-0.6977 1.43707,-1.3927 2.16797,-2.0704 v 0.01 c 9.082,0.456 17.7075,7.9585 24.4375,13.8125 7.119,0.911 13.11486,5.0493 19.67188,7.5743 16.55099,6.172 33.90923,9.6793 50.74023,14.9043 15.043,2.454 30.22745,6.2059 44.81445,10.3789 18.935,2.385 37.83546,5.9598 56.31446,10.1328 3.41653,1.238 7.41557,0.5496 11.02148,0.9101 1.08859,-0.6943 2.34871,-1.1066 3.71289,-1.1679 1.37948,-0.062 2.85566,0.2243 4.33984,0.8867 1.31085,-1.0171 2.83874,-1.5902 4.4336,-1.6426 3.08272,-0.1013 6.38337,1.6994 8.7207,5.7168 0.57409,3e-4 1.2887,-6e-4 1.7207,0 0.42844,-0.034 0.85273,-0.057 1.27344,-0.066 5.70863,-0.1283 10.69915,1.9736 15.00781,5.2422 1.11606,-0.6991 2.36941,-1.0928 3.67969,-1.1348 2.14984,-0.069 4.44008,0.7828 6.47852,2.6641 0.28311,0.01 0.56634,0.032 0.84961,0.072 1.11002,-0.9286 2.3541,-1.5485 3.64453,-1.8438 -0.38944,-0.6393 -0.77379,-1.2806 -1.16406,-1.9199 3.892,0.491 7.82004,0.6312 11.74804,0.4902 1.02078,4.1214 0.893,8.3459 0.64649,12.5821 0.055,0.5687 0.0949,1.1544 0.10937,1.7676 0.17295,7.3311 3.40433,15.6913 0.26172,22.8593 -0.33784,0.7706 -0.9095,1.4049 -1.46484,2.0489 0.61705,0.3215 1.19471,0.7161 1.72265,1.1796 3.50298,0.9042 7.31115,3.7134 10.34375,8.9063 1.1883,2.0348 1.33223,2.3111 1.75782,3.0684 1.28633,1.7968 2.5099,3.6469 3.68359,5.5253 0.77124,1.0733 1.403,2.1246 1.91797,3.1504 1.06584,1.7983 2.10123,3.6047 3.11133,5.3965 10.976,14.622 28.71823,22.6867 45.86523,27.5957 11.081,3.191 23.98561,0.1412 34.22461,0.4922 -0.78032,0.7072 -1.58034,1.3999 -2.39453,2.0801 2.23396,-0.6432 4.22033,-1.1677 6.08789,-1.6406 0.77717,-0.719 1.71821,-1.3549 2.82226,-1.875 -0.31068,-0.5971 -0.59477,-1.2091 -0.80078,-1.8653 40.08,-10.8 63.85252,-53.8944 58.97852,-93.9394 32.821,-9.187 66.87055,-16.8313 99.06055,-29.2793 24.651,-10.134 50.70456,-19.5321 70.72656,-37.8711 31.77,0.21 62.48684,-16.2002 82.96484,-40.1152 25.598,-29.596 34.29458,-72.5168 22.26758,-109.72075 -10.134,-33.628 -36.81798,-61.39825 -69.70898,-73.53125 -3.682,-5.435 2.17281,-11.7472 2.38281,-17.5332 6.908,-26.755 13.95745,-53.47568 20.68945,-80.26562 9.783,0.386 17.6736,6.73437 26.72071,9.60937 12.48396,5.926 26.82345,9.15164 37.93945,17.18164 -0.491,-1.928 -1.50705,-5.82116 -1.99805,-7.78516 -12.343,-24.019 -22.79269,-48.94968 -34.67969,-73.17968 -1.719,-3.752 -4.73497,-7.57403 -3.54297,-11.95703 31.10303,-12.343 62.27618,-24.57974 93.44917,-36.67774 l -0.9824,-2.66601 c -24.89699,-8.836 -51.19561,-15.63799 -76.05661,-24.33399 0.455,-1.332 1.36627,-4.03323 1.82227,-5.36523 13.255,-9.573 25.35115,-20.61841 38.60745,-30.19141 -0.386,-1.578 -1.1922,-4.7345 -1.5782,-6.3125 -8.03,-1.508 -15.95371,-3.36608 -23.84371,-5.33008 -3.682,-5.821 5.43494,-5.67954 8.83594,-6.31054 15.49897,-1.298 30.26237,-8.24194 45.69137,-7.96094 -6.522,-5.575 -15.2894,-6.59252 -22.8984,-9.85352 -27.49198,-8.065 -54.52791,-17.53173 -81.87891,-26.05273 -3.226,-2.244 -12.23751,-1.29691 -9.85351,-7.50391 12.834,-9.678 27.52609,-17.04362 40.74609,-26.26562 l -0.24414,-2.06836 c -30.121,-7.258 -60.27769,-15.04353 -90.67969,-21.14453 l -1.89257,-3.50586 c 4.875,-7.188 13.28976,-12.5876 15.88476,-20.9336 -19.35645,-11.82265 -40.78203,-21.14481 -62.20703,-28.92981 -108.49,-38.18618 -226.62992,-46.04136 -340.16992,-28.82422 -35.271,7.258 -71.21292,13.60573 -104.41992,28.05273 3.016,-40.49496 12.20415,-80.25877 15.53515,-120.75977 z m -25.00586,66.25 c 1.15357,25.87423 -9.71168,51.11812 -7.33007,77.06055 3.05099,-4.278 8.66028,-4.73389 13.11328,-6.83789 81.14,-31.173 168.91392,-41.58731 255.41992,-37.69531 79.42,4.593 159.75694,19.32064 231.71094,54.80664 l 1.47265,3.22656 c -3.016,4.138 -6.17083,8.17066 -9.46679,12.09766 -2.31503,3.121 -4.84069,6.06759 -6.80469,9.43359 0.772,1.473 2.35009,4.45278 3.12109,5.92578 17.042,3.612 34.22486,7.04797 50.88086,12.16797 8.556,1.578 21.63684,-0.42215 26.08984,8.58985 -1.543,0.21 -4.66418,0.59664 -6.24218,0.80664 -6.732,12.659 -27.73624,12.86909 -32.36524,27.24609 24.546,6.346 48.21485,15.4982 72.33985,23.2832 6.732,0.455 13.81554,1.82296 18.93554,6.62696 l -0.63281,1.50781 c -18.023,4.454 -36.36061,7.64481 -54.34961,12.13281 0.632,1.473 1.85924,4.45278 2.49024,5.92578 12.448,2.385 24.89714,5.22488 36.99414,9.04688 4.138,-0.175 14.37667,-0.49091 12.76367,5.99609 -12.238,14.658 -30.75325,23.18028 -42.78125,38.36328 17.042,4.558 34.11954,9.29197 50.81055,15.04297 3.75198,-0.421 7.36464,0.45506 10.76562,2.66406 1.192,0.246 3.6107,0.66711 4.8027,0.91211 v 4.06836 c -22.09066,8.1 -44.04022,16.69082 -65.78122,25.63282 -1.087,1.052 -3.26276,3.11987 -4.38476,4.17187 7.925,16.306 15.60389,32.75142 23.21289,49.23242 3.717,5.19 7.39919,11.57238 6.24219,18.23438 -14.798,-3.401 -27.77114,-13.2546 -42.74414,-15.1836 l -1.47266,1.54297 c -10.169,39.343 -19.95173,78.79263 -30.92773,117.89063 l -2.63086,0.66601 c -2.349,-42.919 0.42143,-86.15468 -1.22657,-129.17968 -12.869,-15.919 -27.17625,-30.89311 -40.78125,-46.28711 -2.945,-2.63 -5.40082,-7.22241 -9.92382,-6.94141 -5.26,9.082 -5.118,20.44389 -8.625,30.29687 -7.644,-0.596 -9.88985,-9.88949 -15.46485,-14.0625 -13.992,-13.43 -24.12476,-31.38157 -40.00976,-42.39257 -5.541,17.252 -6.69857,35.90723 -10.97657,53.61523 l -2.55859,1.78711 c -28.473,-14.377 -54.73834,-33.27719 -83.52734,-46.74219 -4.628,13.395 -3.2943,28.01696 -8.23828,41.37696 -12.16702,-3.226 -20.54946,-14.06127 -31.31446,-20.19727 -19.777,-11.957 -36.92405,-28.68255 -57.99804,-38.18555 -2.59502,14.658 -4.48765,29.63057 -9.43165,43.72657 -29.069,-16.06 -56.35148,-35.62538 -85.77148,-50.98438 2.77,15.92 8.80367,31.3825 9.01367,47.6875 -34.676,-28.649 -67.60339,-59.82164 -103.65039,-86.68164 2.489,17.988 15.18222,33.31288 16.19922,51.54688 -11.572,-6.557 -21.63381,-15.84952 -34.25781,-20.47852 4.488,28.473 12.3075,56.38559 17.8125,84.68359 -0.315,1.438 -0.98088,4.312 -1.29688,5.75 -20.023,-6.978 -39.098,-16.55147 -58.875,-24.23046 l -2.80468,0.80664 c 3.261,39.971 12.58745,79.73429 13.81445,119.77929 -15.043,-10.554 -19.74091,-31.5582 -34.50391,-42.5332 -2.981,54.56 -9.92275,108.80714 -13.21875,163.36914 -0.947,0.981 -2.76979,2.94573 -3.71679,3.92773 -2.13901,-16.551 -7.46974,-32.50671 -11.67774,-48.63671 -5.856,-17.708 -7.04841,-37.23993 -16.69141,-53.54493 -12.063,-11.607 -30.29623,-10.44782 -45.86523,-10.79882 -3.682,-2.981 -3.08642,-8.10013 -3.85742,-12.20313 -1.332,-12.063 -5.08378,-23.98466 -3.4707,-36.22266 -0.56103,-1.928 -1.61268,-5.78668 -2.13868,-7.67968 -3.927,-61.92 -3.89242,-126.89816 23.14258,-184.16016 8.311,-21.425 24.37031,-38.29084 40.57031,-53.96484 -0.07,-1.087 -0.17414,-3.26261 -0.24414,-4.34961 -4.629,0.456 -9.22309,0.21067 -13.74609,-0.73633 -9.222,-2.034 -18.90167,-1.75177 -28.26367,-3.25977 -0.491,-1.017 -1.50705,-3.0162 -1.99805,-4.0332 15.429,-9.117 32.04877,-16.58598 48.63477,-23.45898 6.873,-3.612 14.06115,-6.6286 21.28515,-9.4336 -16.971,-11.852 -36.78295,-19.07467 -54.87695,-29.13867 l -1.15625,-3.12109 c -3.541,0.491 -5.7498,-0.94635 -6.5918,-4.27735 31.033,-0.736 62.5566,1.12127 93.3086,-1.05273 10.029,-12.448 15.95436,-27.87708 26.19336,-40.08008 5.11867,-15.73993 18.22831,-28.7127 25.52343,-43.89063 z m 44.14844,276.9961 3.12109,0.8418 c 30.472,24.686 59.68138,51.65054 90.60938,75.81054 -0.245,-18.76 -8.31081,-36.60883 -9.25781,-55.29883 23.108,15.183 47.2674,28.75263 70.6914,43.51563 1.087,0.211 3.29582,0.66695 4.38282,0.87695 3.927,-13.5 4.94387,-27.80617 9.04687,-41.20117 5.295,-0.14 8.90677,4.27805 13.00977,6.87305 21.811,15.499 43.90189,30.64764 65.71289,46.18164 4.067,2.175 7.88976,7.99475 13.00976,4.59375 -0.771,-8.836 2.66525,-17.25142 3.15625,-25.98242 1.438,-5.506 -0.42175,-12.6945 4.03125,-16.9375 25.142,14.307 50.35425,29.31534 75.53125,43.90234 0.947,0.912 2.91042,2.69933 3.85742,3.61133 1.333,-0.351 3.96193,-1.05137 5.29493,-1.40234 2.945,-15.53402 4.6295,-31.52568 9.1875,-46.63868 4.243,0.245 5.75,5.15422 8.625,7.57422 13.675,15.569 27.35187,31.13835 40.92187,46.77735 1.157,0.175 3.50722,0.56132 4.69922,0.73632 3.401,-9.959 3.786,-21.39096 8.625,-30.54297 9.608,2.59502 14.65734,15.21941 22.65234,21.56641 l -0.13867,1.19141 c 3.611,2.77 8.23889,6.20679 7.71289,11.46679 3.191,40.992 5.15439,82.12408 8.27539,123.08008 -6.873,46.531 -4.94406,94.21852 5.96094,139.97852 4.91,18.831 0.10644,40.9226 -14.72656,53.9316 l 0.42187,1.6133 c -11.291,10.905 -24.05417,20.3732 -38.32617,27.0352 l 0.24414,1.5781 c -3.156,1.403 -6.34642,2.6293 -9.60742,3.6113 -12.764,6.032 -25.80822,11.7122 -39.44922,15.3242 -14.622,6.347 -32.61048,11.6065 -49.02148,15.1485 -2.525,0.175 -7.57266,0.5613 -10.09766,0.7363 -2.595,-6.592 1.61333,-13.9224 0.73633,-20.9004 -13.08,-7.399 -28.36878,-11.6069 -42.67578,-16.5859 -18.199,-6.978 -38.60739,-5.2586 -56.52539,-12.5176 -23.844,-2.524 -47.51232,1.7545 -70.44532,7.8555 -5.224,0.245 -6.10181,5.68 -9.25781,8.625 -9.994,2.104 -19.53114,5.8925 -29.24414,8.9785 -2.033,10.975 0.91224,22.8609 2.49024,34.0469 -8.17,1.298 -16.51719,-0.2099 -24.61719,-1.2969 -8.521,-3.857 -19.03985,-0.07 -26.96485,-5.2949 -12.764,2.385 -24.40517,-4.6645 -37.09961,-3.8575 l -0.56054,-2.2793 c -31.454,-3.121 -61.96058,-12.5518 -92.64258,-19.8808 -25.528,-6.558 -50.42558,-17.3225 -70.51758,-34.6445 -2.245,-3.296 -3.5772,-6.9441 -4.0332,-10.8711 -3.051,0.842 -5.96094,1.9295 -8.83594,3.2265 l -2.2793,-0.8066 c -17.042,9.748 -38.8521,10.4484 -57.7871,5.6094 -33.487,-7.434 -60.73365,-33.7687 -73.18165,-65.2227 l 0.49024,-2.6289 c -17.182,-47.371 10.9752,-104.49261 58.0332,-121.84961 22.161,-8.521 48.35564,-10.31081 70.30664,-0.63281 0.246,2.385 0.70227,7.19022 0.94727,9.57422 l 1.75195,0.91211 c 1.648,11.432 6.41844,22.61814 6.52344,34.11914 10.52,34.403 15.84831,70.37925 25.07031,105.19925 2.77,9.082 1.99838,19.6728 7.60938,27.6328 3.226,-33.903 4.52414,-68.4794 9.99414,-101.86135 -1.227,-5.68 0.24703,-11.5358 0.45703,-17.2168 2.279,-39.657 7.11758,-79.10451 9.64258,-118.72851 7.013,7.96 14.3749,16.83089 19.0039,26.08789 7.118,7.925 12.44839,17.18181 18.90039,25.63281 2.805,3.647 4.83935,8.20475 9.15235,10.34375 -0.526,-5.33 -1.36885,-10.62492 -1.96485,-15.91992 -3.226,-23.284 -6.80231,-46.74255 -8.69531,-70.06055 -3.787,-23.424 -8.52041,-47.02272 -8.94141,-70.76172 12.694,4.664 25.492,9.36369 37.625,15.42969 7.819,2.244 15.04304,6.24033 22.58204,9.36133 1.298,0.071 3.9276,0.21141 5.2246,0.31641 -1.40199,-14.202 -6.48739,-27.70268 -8.27539,-41.76368 -4.068,-13.711 -7.08229,-27.98206 -8.02929,-42.28906 7.714,5.4 16.55028,9.18753 23.73828,15.39453 5.996,3.331 11.1158,8.13502 17.2168,11.29102 -0.42,-14.798 -9.88713,-27.24564 -13.07813,-41.30664 z m 484.66992,228.63086 c 49.126,17.46 77.52922,77.84547 57.82422,126.48046 l 0.38477,1.998 c -12.413,27.351 -35.8716,53.5105 -66.3086,59.1915 1.507,-9.257 7.60968,-17.2172 9.88868,-26.3692 2.38499,-26.685 -8.0999,-52.0019 -9.7129,-78.33592 -1.648,-14.061 -2.84229,-28.36868 -1.40429,-42.42969 -0.421,-10.58999 3.40372,-20.86482 5.26172,-31.17382 l 1.05078,1.26367 -0.35157,-4.69922 c 0.84101,-1.473 2.52619,-4.41778 3.36719,-5.92578 z M 561.84363,1114.7779 c 7.47373,0.068 14.7707,1.2593 21.67383,4.2949 7.399,-0.386 14.6245,0.6312 21.8125,2.2442 13.501,1.298 25.80772,6.2086 38.88672,9.0136 l -0.87695,1.5078 c 2.876,0.561 8.6621,1.6127 11.5371,2.1387 l -0.17382,2.875 2.24414,-1.4726 c 4.664,2.524 9.57172,4.3469 14.76172,5.5039 l -0.52539,3.332 c 2.42,6.558 -0.24549,13.4993 -0.77149,20.1973 -13.711,3.506 -28.12103,3.5069 -41.83203,7.0839 -0.877,-1.332 -2.66608,-4.0333 -3.57813,-5.4003 -14.58699,1.859 -29.3505,2.3487 -43.9375,4.1367 -2.84,6.207 -0.10331,13.4669 -0.94531,20.1289 -18.935,0.561 -38.85283,-6.311 -58.17383,-8.836 -7.224,0.385 -6.20776,-7.4691 -7.25976,-12.2031 -11.431,-3.542 -23.98399,-2.9803 -34.95899,-7.3633 -1.894,-7.224 -0.87723,-15.0795 -2.49023,-22.4785 0.981,-0.526 2.94589,-1.6126 3.96289,-2.1386 7.645,0.105 13.711,-5.2601 21.25,-5.3301 2.069,-0.491 6.2767,-1.4719 8.3457,-1.9629 0.07,1.964 0.17399,5.8895 0.20899,7.8535 2.314,-4.769 -1.08728,-10.0982 1.26172,-14.8672 15.83862,-3.1102 33.13591,-8.407 49.57812,-8.2578 z m 50.70899,59.1777 c 9.257,10.134 23.77386,-0.2115 35.38086,1.6465 0.561,15.043 0.98137,30.3684 -3.01563,45.0254 l -2.20898,1.0508 c -3.647,19.005 -19.46221,34.2941 -35.90821,43.6562 -22.196,10.8 -49.93181,11.6779 -71.88281,-1.1211 -14.587,-8.485 -27.38594,-21.7754 -32.96094,-37.7304 -2.349,-2.98 -3.96304,-6.4163 -3.99804,-10.2383 -3.997,-13.675 -2.31338,-27.9838 -2.73438,-42.0098 3.086,0 9.18733,-0.034 12.23633,-0.035 3.226,3.892 0.10448,11.291 6.52148,12.834 24.511,3.191 48.6708,10.3447 73.2168,12.0977 0.211,-7.329 -2.31405,-15.5328 0.87695,-22.3008 7.68,-2.945 16.41157,-1.227 24.47657,-2.875 z m -20.9375,108.127 c -0.114,0.02 -0.23271,0.03 -0.34571,0.053 -0.0859,0.081 -0.17194,0.1614 -0.25781,0.2422 0.21002,-0.1019 0.38741,-0.1902 0.60352,-0.295 z"
     inkscape:connector-curvature="0" /><path
     class="st1"
     d="m 326.49401,401.80261 c 1.157,25.878 -9.713,51.125 -7.329,77.074 -0.316,5.47 -0.877,10.975 -0.912,16.481 6.487,2.525 13.43,-3.366 19.917,-4.664 4.278,4.348 -0.07,10.765 0.245,15.99 -0.561,18.199 9.748,34.504 20.303,48.285 -11.572,1.332 -23.318,-0.771 -34.82,1.718 -6.347,-0.421 -13.57,-3.752 -18.55,1.788 -1.297,-0.386 -3.857,-1.087 -5.155,-1.473 -0.631,4.418 -1.052,8.836 -1.297,13.29 -1.052,-5.786 -2.139,-11.607 -3.507,-17.322 -19.181,-5.996 -40.22,-5.751 -58.384,-15.008 -4.523,-2.314 -9.222,-4.173 -14.202,-5.155 6.873,-3.612 14.061,-6.627 21.285,-9.433 6.873,-3.401 17.708,-4.594 20.163,-12.904 -10.344,-4.418 -21.846,-5.295 -31.874,-10.59 13.57,-1.613 25.948,6.592 39.343,5.961 6.136,-0.035 7.188,-6.662 9.678,-10.87 6.277,-15.218 15.604,-29.104 21.179,-44.568 -0.386,-1.192 -1.192,-3.542 -1.613,-4.699 5.122,-15.743 18.237,-28.717 25.53,-43.901 z"
     id="path4087"
     inkscape:connector-curvature="0"
     style="fill:#703838;stroke:#703838;stroke-width:3.50650001" /><path
     class="st2"
     d="m 332.27401,472.04261 c 81.141,-31.173 168.91,-41.588 255.42,-37.695 79.423,4.594 159.76,19.321 231.71,54.807 l 1.473,3.226 c -3.016,4.138 -6.172,8.17 -9.468,12.098 -5.646,-1.543 -11.186,-3.471 -16.551,-5.821 -35.802,-15.253 -73.743,-26.089 -112.24,-31.804 -28.648,-8.346 -58.945,-8.836 -88.47,-11.677 -38.467,-3.226 -77.074,-0.912 -115.36,2.63 -17.778,2.805 -36.082,3.156 -53.335,8.661 -29.595,5.926 -59.366,12.694 -87.278,24.23 -6.487,1.297 -13.43,7.188 -19.917,4.664 0.035,-5.505 0.596,-11.011 0.912,-16.481 3.051,-4.278 8.662,-4.734 13.115,-6.838 z"
     id="path4089"
     inkscape:connector-curvature="0"
     style="fill:#9c5050;stroke:#9c5050;stroke-width:3.50650001" /><path
     class="st2"
     d="m 300.96401,445.70261 c 0.421,1.157 1.227,3.507 1.613,4.699 -5.575,15.464 -14.903,29.35 -21.179,44.568 -2.49,4.208 -3.542,10.835 -9.678,10.87 -13.395,0.631 -25.773,-7.574 -39.343,-5.961 -14.622,-3.577 -29.139,-8.311 -44.323,-8.766 -3.542,0.491 -5.751,-0.947 -6.592,-4.278 31.033,-0.736 62.557,1.122 93.309,-1.052 10.028,-12.448 15.954,-27.877 26.193,-40.08 z"
     id="path4091"
     inkscape:connector-curvature="0"
     style="fill:#9c5050;stroke:#9c5050;stroke-width:3.50650001" /><path
     class="st3"
     d="m 478.77401,457.80261 c 38.291,-3.542 76.898,-5.856 115.36,-2.63 29.525,2.84 59.822,3.331 88.47,11.677 1.964,8.275 11.572,9.853 16.481,15.92 6.627,7.259 15.604,13.851 17.463,24.125 0.912,8.801 1.473,17.883 -0.561,26.58 -4.032,12.133 -16.691,18.059 -22.933,28.789 17.638,0.421 35.065,-6.557 52.844,-2.104 -19.461,5.19 -40.15,4.979 -60.137,7.504 -97.938,8.275 -196.65,7.609 -294.51,-0.807 -6.277,-0.245 -12.378,-1.578 -18.444,-2.945 28.122,-5.575 56.175,5.926 84.473,1.508 -17.743,-12.939 -38.467,-26.194 -44.708,-48.636 -4.243,-19.707 11.817,-34.224 23.354,-47.443 -2.595,-0.701 -7.855,-2.139 -10.485,-2.875 17.25,-5.507 35.554,-5.858 53.332,-8.663 z"
     id="path4093"
     inkscape:connector-curvature="0"
     style="fill:#804040;stroke:#804040;stroke-width:3.50650001" /><path
     class="st4"
     d="m 338.16401,490.69261 c 27.912,-11.537 57.683,-18.304 87.278,-24.23 2.63,0.736 7.89,2.174 10.485,2.875 -11.536,13.22 -27.596,27.737 -23.354,47.443 6.242,22.442 26.965,35.697 44.708,48.636 -28.298,4.418 -56.35,-7.083 -84.473,-1.508 -16.305,-2.314 -32.961,-2.875 -48.916,-7.223 11.501,-2.49 23.248,-0.386 34.82,-1.718 -10.555,-13.781 -20.864,-30.086 -20.303,-48.285 -0.315,-5.225 4.033,-11.642 -0.245,-15.99 z"
     id="path4095"
     inkscape:connector-curvature="0"
     style="fill:#773c3c;stroke:#773c3c;stroke-width:3.50650001" /><path
     class="st5"
     d="m 682.61401,466.85261 c 38.502,5.716 76.443,16.551 112.24,31.804 -13.5,0.526 -26.019,5.996 -38.888,9.503 3.542,1.543 7.083,2.945 10.73,4.208 -3.577,0.912 -7.118,1.929 -10.625,3.016 20.759,13.64 46.006,13.36 69.815,15.604 10.73,2.314 21.916,4.103 32.716,1.017 8.556,1.578 21.635,-0.421 26.089,8.591 -1.543,0.21 -4.664,0.596 -6.242,0.806 -22.091,0.105 -44.323,-2.735 -66.239,1.087 -10.344,2.139 -21.074,0.596 -31.348,3.051 1.788,4.383 7.364,5.085 10.94,7.539 -15.043,3.717 -30.542,5.12 -45.901,7.083 -17.778,-4.453 -35.206,2.525 -52.844,2.104 6.242,-10.73 18.9,-16.656 22.933,-28.789 2.034,-8.696 1.473,-17.778 0.561,-26.58 -1.858,-10.274 -10.835,-16.866 -17.463,-24.125 -4.907,-6.066 -14.515,-7.644 -16.478,-15.919 z"
     id="path4097"
     inkscape:connector-curvature="0"
     style="fill:#783c3c;stroke:#783c3c;stroke-width:3.50650001" /><path
     class="st6"
     d="m 118.06401,471.09261 c 48.916,0.21 97.903,0.351 146.85,-0.07 0.912,0.771 2.805,2.279 3.717,3.016 -36.293,1.858 -72.726,0.21 -109.05,0.877 -11.046,0.456 -22.722,-2.104 -33.067,2.946 -4.033,0.7 -7.329,-3.228 -8.451,-6.769 z"
     id="path4099"
     inkscape:connector-curvature="0"
     style="opacity:0.65;stroke:#000000;stroke-width:3.50650001;enable-background:new" /><path
     class="st7"
     d="m 188.05401,491.12261 c 15.183,0.456 29.7,5.19 44.323,8.766 10.029,5.295 21.53,6.171 31.874,10.59 -2.455,8.311 -13.29,9.503 -20.163,12.904 -16.972,-11.852 -36.784,-19.076 -54.877,-29.139 z"
     id="path4101"
     inkscape:connector-curvature="0"
     style="fill:#522a2a;stroke:#522a2a;stroke-width:3.50650001" /><path
     class="st7"
     d="m 755.97401,508.16261 c 12.869,-3.507 25.387,-8.977 38.888,-9.503 5.365,2.349 10.905,4.278 16.551,5.821 -2.314,3.121 -4.839,6.066 -6.803,9.433 0.771,1.473 2.349,4.453 3.121,5.926 -13.605,-2.91 -27.281,-5.435 -41.027,-7.469 -3.646,-1.263 -7.188,-2.665 -10.73,-4.208 z"
     id="path4103"
     inkscape:connector-curvature="0"
     style="fill:#522a2a;stroke:#522a2a;stroke-width:3.50650001" /><path
     class="st2"
     d="m 756.07401,515.38261 c 3.507,-1.087 7.048,-2.104 10.625,-3.016 13.746,2.034 27.421,4.559 41.027,7.469 17.042,3.612 34.224,7.048 50.88,12.168 -10.8,3.086 -21.986,1.297 -32.716,-1.017 -23.811,-2.244 -49.058,-1.963 -69.816,-15.604 z"
     id="path4105"
     inkscape:connector-curvature="0"
     style="fill:#9c5050;stroke:#9c5050;stroke-width:3.50650001" /><path
     class="st2"
     d="m 174.16401,556.27261 c 15.429,-9.117 32.05,-16.586 48.636,-23.459 4.979,0.982 9.678,2.84 14.202,5.155 18.164,9.257 39.203,9.012 58.384,15.008 1.368,5.716 2.455,11.537 3.507,17.322 2.244,12.659 2.49,25.528 4.383,38.221 -28.473,-8.836 -58.173,-14.798 -85.244,-27.386 -0.421,-13.185 19.566,-19.496 22.126,-32.751 -12.869,-0.596 -25.773,7.294 -35.732,15.183 -9.222,-2.034 -18.9,-1.753 -28.263,-3.261 -0.491,-1.017 -1.508,-3.016 -1.999,-4.032 z"
     id="path4107"
     inkscape:connector-curvature="0"
     style="fill:#9c5050;stroke:#9c5050;stroke-width:3.50650001" /><path
     class="st7"
     d="m 780.86401,545.54261 c 10.274,-2.455 21.004,-0.912 31.348,-3.051 21.916,-3.822 44.147,-0.982 66.239,-1.087 -6.733,12.659 -27.737,12.869 -32.365,27.246 -18.129,-4.979 -35.451,-13.395 -54.281,-15.569 -3.577,-2.454 -9.153,-3.155 -10.941,-7.539 z"
     id="path4109"
     inkscape:connector-curvature="0"
     style="fill:#522a2a;stroke:#522a2a;stroke-width:3.50650001" /><path
     class="st8"
     d="m 204.43201,563.55261 c 9.959,-7.89 22.863,-15.779 35.732,-15.183 -2.56,13.255 -22.547,19.566 -22.126,32.751 27.07,12.588 56.771,18.55 85.244,27.386 1.087,4.208 2.209,8.451 2.665,12.799 -7.82,1.157 -10.975,-9.187 -18.55,-9.573 2.63,25.703 9.538,51.02 11.677,76.653 -9.292,-1.227 -15.464,-9.783 -23.809,-13.465 -12.273,-5.295 -21.53,-16.095 -34.399,-20.022 3.331,27.667 5.996,55.333 9.748,82.965 -0.14,2.63 -0.386,7.855 -0.526,10.485 -7.329,-7.048 -9.713,-19.076 -19.321,-23.459 -5.996,15.394 -2.981,32.611 -9.292,47.934 -7.469,-22.091 -16.656,-43.516 -23.459,-65.853 -2.875,-7.258 -3.997,-15.674 -9.678,-21.46 0.807,40.886 11.466,81.457 12.553,122.24 -9.222,0.877 -16.972,-6.031 -26.089,-5.47 -0.947,7.89 5.084,14.622 5.365,22.512 -6.312,1.052 -12.939,1.332 -19.146,-0.526 -1.508,-3.226 -2.91,-6.522 -4.173,-9.818 -0.561,-1.929 -1.613,-5.786 -2.139,-7.679 -3.927,-61.926 -3.892,-126.9 23.143,-184.16 8.311,-21.425 24.37,-38.291 40.571,-53.966 -0.07,-1.087 -0.175,-3.261 -0.245,-4.348 -4.629,0.455 -9.223,0.21 -13.746,-0.737 z"
     id="path4111"
     inkscape:connector-curvature="0"
     style="fill:#663333;stroke:#663333;stroke-width:3.50650001" /><path
     class="st2"
     d="m 791.80401,553.08261 c 18.83,2.174 36.152,10.59 54.281,15.569 24.546,6.347 48.215,15.499 72.34,23.283 -3.331,3.051 -7.153,4.243 -11.537,3.577 -16.481,-2.139 -32.961,-4.348 -49.547,-5.33 -13.044,-0.035 -25.107,5.716 -37.485,9.012 0.035,0.982 0.07,2.945 0.105,3.927 21.67,4.804 43.095,10.905 64.906,15.008 12.448,2.384 24.896,5.225 36.994,9.047 -10.204,5.049 -21.811,2.209 -32.681,2.49 -15.92,-1.262 -31.98,-0.456 -47.829,-1.929 -10.309,-7.013 -19.987,-15.183 -28.894,-23.915 -4.313,-3.682 -9.783,0.701 -14.342,1.473 -26.509,7.013 -53.44,12.413 -80.51,16.621 -1.543,-3.436 -3.857,-5.47 -6.908,-6.136 -0.982,1.788 -2.946,5.33 -3.927,7.083 -26.755,5.681 -54.351,5.47 -81.246,10.274 -6.698,-4.453 -11.922,-11.712 -19.917,-13.816 -1.438,4.559 -2.49,9.187 -3.542,13.816 -11.747,0.631 -23.529,1.262 -35.276,0.245 -5.996,-11.642 -13.15,-22.617 -18.9,-34.329 -3.121,-5.33 -5.085,-12.378 -11.537,-14.622 -7.679,16.726 -18.935,31.454 -26.825,48.04 -13.851,2.244 -27.877,-1.227 -41.798,0.736 -16.621,-12.413 -30.998,-27.421 -46.216,-41.377 -4.734,-3.997 -8.275,-10.449 -15.008,-11.046 -1.332,14.973 0.561,30.191 -2.279,45.024 -5.821,2.419 -11.887,-0.771 -16.656,-3.962 -27.526,-20.969 -54.632,-42.499 -82.228,-63.363 4.979,-5.54 12.203,-2.209 18.55,-1.788 15.955,4.348 32.611,4.909 48.916,7.223 6.066,1.368 12.168,2.7 18.444,2.945 97.868,8.416 196.58,9.082 294.51,0.807 19.987,-2.525 40.676,-2.314 60.137,-7.504 15.359,-1.964 30.858,-3.367 45.901,-7.083 z"
     id="path4113"
     inkscape:connector-curvature="0"
     style="fill:#9c5050;stroke:#9c5050;stroke-width:3.50650001" /><path
     class="st7"
     d="m 300.19401,557.00261 c 1.297,0.386 3.857,1.087 5.155,1.473 27.596,20.864 54.702,42.394 82.228,63.363 4.769,3.191 10.835,6.382 16.656,3.962 2.84,-14.833 0.947,-30.051 2.279,-45.024 6.733,0.596 10.274,7.048 15.008,11.046 15.218,13.956 29.595,28.964 46.216,41.377 8.661,7.329 15.078,20.969 26.755,22.617 5.891,-7.188 11.011,-15.008 15.043,-23.354 7.89,-16.586 19.146,-31.313 26.825,-48.04 6.452,2.244 8.416,9.292 11.537,14.622 5.751,11.712 12.904,22.687 18.9,34.329 5.26,11.642 13.009,21.881 18.374,33.452 1.683,3.191 3.401,8.451 8.1,7.504 2.945,-13.711 6.592,-27.316 8.801,-41.202 1.052,-4.629 2.104,-9.257 3.542,-13.816 7.995,2.104 13.22,9.362 19.917,13.816 17.743,16.411 36.643,31.734 55.894,46.392 3.296,3.331 6.627,-1.718 7.048,-4.769 5.891,-17.357 13.535,-34.154 18.304,-51.897 0.982,-1.753 2.945,-5.295 3.927,-7.083 3.051,0.666 5.365,2.7 6.908,6.136 12.589,21.986 28.929,41.552 42.605,62.872 15.008,-9.713 16.726,-30.717 27.982,-44.042 8.276,2.77 10.274,12.238 14.657,18.76 16.726,26.65 32.19,54.106 48.916,80.756 4.418,8.416 14.728,2.455 21.951,2.455 14.131,8.1 18.725,26.685 33.347,33.417 l 2.665,0.631 1.543,-3.507 c 3.717,5.19 7.399,11.572 6.242,18.234 -14.798,-3.401 -27.772,-13.255 -42.745,-15.183 l -1.473,1.543 c -10.169,39.343 -19.952,78.792 -30.928,117.89 l -2.63,0.666 c -2.349,-42.92 0.421,-86.156 -1.227,-129.18 -12.869,-15.92 -27.176,-30.893 -40.781,-46.286 -2.945,-2.63 -5.4,-7.223 -9.923,-6.943 -5.26,9.082 -5.12,20.443 -8.626,30.297 -7.644,-0.596 -9.888,-9.888 -15.464,-14.061 -13.991,-13.43 -24.125,-31.384 -40.01,-42.394 -5.54,17.252 -6.698,35.907 -10.976,53.615 l -2.56,1.788 c -28.473,-14.377 -54.737,-33.277 -83.526,-46.742 -4.629,13.395 -3.296,28.017 -8.24,41.377 -12.168,-3.226 -20.548,-14.061 -31.313,-20.198 -19.777,-11.957 -36.924,-28.684 -57.998,-38.186 -2.595,14.657 -4.488,29.63 -9.433,43.727 -29.069,-16.06 -56.35,-35.626 -85.77,-50.985 2.77,15.92 8.801,31.384 9.012,47.689 -34.68,-28.648 -67.606,-59.822 -103.65,-86.682 2.49,17.989 15.183,33.312 16.2,51.546 -11.572,-6.557 -21.635,-15.85 -34.259,-20.478 4.488,28.473 12.308,56.385 17.813,84.683 -0.316,1.438 -0.982,4.313 -1.297,5.751 -20.022,-6.978 -39.098,-16.551 -58.875,-24.23 l -2.805,0.806 c 3.261,39.975 12.589,79.739 13.816,119.78 -15.043,-10.555 -19.742,-31.559 -34.504,-42.534 -2.981,54.562 -9.924,108.81 -13.22,163.37 -0.947,0.982 -2.77,2.945 -3.717,3.927 -2.139,-16.551 -7.469,-32.506 -11.677,-48.636 -5.856,-17.708 -7.048,-37.239 -16.691,-53.545 -12.063,-11.607 -30.297,-10.449 -45.866,-10.8 -3.682,-2.981 -3.086,-8.1 -3.857,-12.203 -1.332,-12.063 -5.084,-23.985 -3.471,-36.223 1.262,3.296 2.665,6.592 4.173,9.818 6.207,1.858 12.834,1.578 19.146,0.526 -0.281,-7.89 -6.312,-14.622 -5.365,-22.512 9.117,-0.561 16.866,6.347 26.089,5.47 -1.087,-40.781 -11.747,-81.352 -12.553,-122.24 5.681,5.786 6.803,14.202 9.678,21.46 6.803,22.337 15.99,43.762 23.459,65.853 6.312,-15.324 3.296,-32.541 9.292,-47.934 9.608,4.383 11.992,16.411 19.321,23.459 0.14,-2.63 0.386,-7.855 0.526,-10.485 -3.752,-27.632 -6.417,-55.298 -9.748,-82.965 12.869,3.927 22.126,14.728 34.399,20.022 8.346,3.682 14.517,12.238 23.809,13.465 -2.139,-25.633 -9.047,-50.95 -11.677,-76.653 7.574,0.386 10.73,10.73 18.55,9.573 -0.456,-4.348 -1.578,-8.591 -2.665,-12.799 -1.894,-12.694 -2.139,-25.563 -4.383,-38.221 0.246,-4.451 0.667,-8.869 1.298,-13.287 z"
     id="path4115"
     inkscape:connector-curvature="0"
     style="fill:#522a2a;stroke:#522a2a;stroke-width:3.50650001" /><path
     class="st9"
     d="m 819.86401,599.19261 c 12.378,-3.296 24.441,-9.047 37.485,-9.012 16.586,0.982 33.067,3.191 49.547,5.33 4.383,0.666 8.205,-0.526 11.537,-3.577 6.732,0.456 13.816,1.823 18.935,6.627 l -0.631,1.508 c -18.024,4.453 -36.363,7.644 -54.351,12.133 0.631,1.473 1.858,4.453 2.49,5.926 -21.811,-4.103 -43.236,-10.204 -64.906,-15.008 -0.036,-0.982 -0.071,-2.946 -0.106,-3.927 z"
     id="path4117"
     inkscape:connector-curvature="0"
     style="fill:#5b2e2e;stroke:#5b2e2e;stroke-width:3.50650001" /><path
     class="st10"
     d="m 798.11401,605.29261 c 4.558,-0.771 10.029,-5.155 14.342,-1.473 8.907,8.731 18.585,16.901 28.894,23.915 15.85,1.473 31.91,0.666 47.829,1.929 10.87,-0.281 22.477,2.56 32.681,-2.49 4.138,-0.175 14.377,-0.491 12.764,5.996 -28.087,5.505 -55.228,14.833 -83.035,21.635 0.456,1.648 1.403,4.979 1.858,6.662 -4.278,-0.21 -8.556,-0.245 -12.799,-0.14 3.296,5.4 6.277,11.291 11.01,15.674 9.222,5.26 20.338,2.84 30.402,4.664 13.114,2.875 26.65,2.875 39.799,5.505 6.873,1.297 14.061,1.613 20.794,-0.596 3.752,-0.421 7.364,0.456 10.765,2.665 -4.629,7.749 -15.289,2.034 -22.512,3.542 -23.809,4.909 -48.355,1.403 -72.41,4.103 l -1.157,2.384 c 3.016,2.384 6.242,4.559 9.398,6.838 -1.683,2.735 -1.543,5.365 0.491,7.89 13.114,20.829 27.807,40.746 39.834,62.136 -14.622,-6.733 -19.216,-25.317 -33.347,-33.417 -7.223,0 -17.533,5.961 -21.951,-2.455 -16.726,-26.65 -32.19,-54.106 -48.916,-80.756 -4.383,-6.522 -6.382,-15.99 -14.657,-18.76 -11.256,13.325 -12.974,34.329 -27.982,44.042 -13.676,-21.32 -30.016,-40.886 -42.605,-62.872 27.07,-4.208 54.001,-9.608 80.51,-16.621 z"
     id="path4119"
     inkscape:connector-curvature="0"
     style="fill:#673333;stroke:#673333;stroke-width:3.50650001" /><path
     class="st11"
     d="m 939.04401,617.63261 c -3.682,-5.821 5.435,-5.681 8.836,-6.312 3.997,5.505 9.959,9.222 16.901,9.503 6.242,-0.912 5.611,9.818 -0.316,8.451 -0.386,-1.578 -1.192,-4.734 -1.578,-6.312 -8.029,-1.508 -15.953,-3.366 -23.843,-5.33 z"
     id="path4121"
     inkscape:connector-curvature="0"
     style="opacity:0.41000001;stroke:#000000;stroke-width:3.50650001;enable-background:new" /><path
     class="st12"
     d="m 625.52401,633.13261 c 26.895,-4.804 54.492,-4.594 81.246,-10.274 -4.769,17.743 -12.413,34.539 -18.304,51.897 -0.421,3.051 -3.752,8.1 -7.048,4.769 -19.251,-14.658 -38.151,-29.982 -55.894,-46.392 z"
     id="path4123"
     inkscape:connector-curvature="0"
     style="fill:#6e3737;stroke:#6e3737;stroke-width:3.50650001" /><path
     class="st13"
     d="m 467.73401,633.20261 c 13.921,-1.964 27.947,1.508 41.798,-0.736 -4.033,8.346 -9.152,16.165 -15.043,23.354 -11.677,-1.649 -18.094,-15.289 -26.755,-22.618 z"
     id="path4125"
     inkscape:connector-curvature="0"
     style="fill:#6f3838;stroke:#6f3838;stroke-width:3.50650001" /><path
     class="st1"
     d="m 566.79401,633.38261 c 11.747,1.017 23.529,0.386 35.276,-0.245 -2.209,13.886 -5.856,27.491 -8.801,41.202 -4.699,0.947 -6.417,-4.313 -8.1,-7.504 -5.366,-11.572 -13.116,-21.811 -18.375,-33.453 z"
     id="path4127"
     inkscape:connector-curvature="0"
     style="fill:#703838;stroke:#703838;stroke-width:3.50650001" /><path
     class="st7"
     d="m 851.59401,654.80261 c 27.807,-6.803 54.947,-16.13 83.035,-21.635 -12.238,14.657 -30.752,23.178 -42.78,38.362 -13.185,-1.929 -25.563,-6.838 -38.397,-10.064 -0.456,-1.683 -1.402,-5.015 -1.858,-6.663 z"
     id="path4129"
     inkscape:connector-curvature="0"
     style="fill:#522a2a;stroke:#522a2a;stroke-width:3.50650001" /><path
     class="st2"
     d="m 840.65401,661.32261 c 4.243,-0.105 8.521,-0.07 12.799,0.14 12.834,3.226 25.212,8.135 38.397,10.064 17.042,4.559 34.119,9.292 50.81,15.043 -6.733,2.209 -13.921,1.893 -20.794,0.596 -13.15,-2.63 -26.685,-2.63 -39.799,-5.505 -10.064,-1.823 -21.18,0.596 -30.402,-4.664 -4.734,-4.383 -7.714,-10.273 -11.011,-15.674 z"
     id="path4131"
     inkscape:connector-curvature="0"
     style="fill:#9c5050;stroke:#9c5050;stroke-width:3.50650001" /><path
     class="st14"
     d="m 370.63401,678.82261 3.121,0.842 c 30.472,24.686 59.681,51.651 90.609,75.811 -0.245,-18.76 -8.31,-36.608 -9.257,-55.298 23.108,15.183 47.268,28.754 70.692,43.516 1.087,0.21 3.296,0.666 4.383,0.877 3.927,-13.5 4.944,-27.807 9.047,-41.202 5.295,-0.14 8.907,4.278 13.009,6.873 21.811,15.499 43.902,30.647 65.713,46.181 4.068,2.174 7.89,7.995 13.009,4.594 -0.771,-8.836 2.665,-17.252 3.156,-25.983 1.438,-5.505 -0.421,-12.694 4.033,-16.937 25.142,14.307 50.354,29.315 75.531,43.902 0.947,0.912 2.911,2.7 3.857,3.612 2.104,3.752 5.155,4.769 9.152,3.156 0.806,-4.173 1.613,-8.346 2.349,-12.483 19.637,23.283 29.174,57.297 19.882,87.173 -2.174,10.204 11.151,18.76 4.488,28.508 -7.399,-21.25 -22.968,-40.29 -44.218,-48.601 -7.013,-2.84 -16.761,-2.104 -21.039,4.874 -5.365,9.994 -6.627,21.565 -6.242,32.786 0.14,12.799 -1.508,27.596 8.1,37.73 9.573,-6.136 17.708,-14.202 26.93,-20.759 10.765,-5.575 23.353,-4.138 34.995,-3.226 -4.558,7.609 -15.183,1.578 -21.635,6.101 -10.52,9.362 -18.83,21.215 -30.647,29.174 -27.035,18.9 -59.26,28.193 -91.24,34.504 -9.748,0.561 -19.777,-0.947 -29.139,2.595 -10.064,4.278 -20.057,-2.069 -30.191,-1.999 -6.347,-0.596 -13.255,0.771 -18.935,-2.7 -2.84,-6.312 -3.507,-14.096 -9.678,-18.304 -14.727,-34.469 -44.112,-64.17 -81.282,-73.006 -36.223,-11.326 -76.863,-1.543 -106.32,21.67 -7.855,6.066 -14.342,13.711 -21.6,20.408 -3.226,-23.283 -6.803,-46.742 -8.696,-70.061 4.488,-5.365 7.083,-11.922 9.888,-18.234 0.877,4.909 1.823,9.853 3.682,14.552 4.839,11.852 15.815,22.126 29.28,21.916 21.776,2.069 39.694,-22.898 30.787,-42.885 -2.069,-9.783 -12.588,-13.009 -17.147,-21.004 -1.403,-14.202 -6.487,-27.702 -8.275,-41.763 0.07,-11.116 2.034,-25.282 15.709,-26.895 5.996,3.331 11.116,8.135 17.217,11.291 -0.422,-14.796 -9.889,-27.245 -13.08,-41.306 m 153.31,79.493 c -24.16,1.403 -47.794,12.869 -63.468,31.348 -7.399,9.117 -21.179,15.709 -20.478,29.104 13.991,11.747 36.258,10.625 49.162,24.511 4.804,8.03 15.499,10.134 19.777,18.725 4.243,9.538 13.675,14.798 22.512,19.461 8.1,1.718 10.975,-8.17 17.708,-10.449 6.662,1.543 13.465,5.365 20.478,3.261 11.747,-4.769 25.072,-2.525 36.503,-8.696 5.26,-0.947 4.594,-7.223 7.013,-10.73 5.084,-3.507 12.238,0.175 17.217,-3.542 12.729,-10.94 20.338,-28.964 15.464,-45.62 -4.418,-14.552 -13.746,-27.947 -27.351,-35.171 -15.639,-13.114 -36.819,-12.939 -55.403,-18.515 -13.326,-0.595 -26.09,4.28 -39.134,6.313 m -124.97,47.444 c -5.12,1.613 -7.644,7.995 -5.505,12.869 2.069,8.872 16.691,8.766 18.76,-0.035 3.751,-7.925 -5.611,-15.955 -13.255,-12.834 m 216.91,52.072 c -2.279,5.996 -0.421,8.03 5.575,6.101 1.789,-5.505 -0.07,-7.539 -5.575,-6.101 m 0.701,38.958 c -12.448,6.838 -7.539,27.421 6.312,28.754 10.975,2.49 21.144,-8.591 18.339,-19.286 -1.613,-11.046 -16.2,-15.359 -24.651,-9.468 z"
     id="path4133"
     inkscape:connector-curvature="0"
     style="fill:#55a2a2;stroke:#55a2a2;stroke-width:3.50650001" /><path
     class="st7"
     d="m 953.42401,689.23261 c 1.192,0.245 3.612,0.666 4.804,0.912 v 4.068 c -22.091,8.1 -44.042,16.691 -65.783,25.633 -1.087,1.052 -3.261,3.121 -4.383,4.173 -4.383,-8.626 -14.342,-11.852 -21.32,-17.918 -3.156,-2.279 -6.382,-4.453 -9.398,-6.838 l 1.157,-2.384 c 24.055,-2.7 48.601,0.807 72.41,-4.103 7.224,-1.509 17.884,4.207 22.513,-3.543 z"
     id="path4135"
     inkscape:connector-curvature="0"
     style="fill:#522a2a;stroke:#522a2a;stroke-width:3.50650001" /><path
     class="st15"
     d="m 342.76401,693.44261 c 7.714,5.4 16.551,9.187 23.739,15.394 -13.675,1.613 -15.639,15.779 -15.709,26.895 -4.068,-13.71 -7.084,-27.982 -8.03,-42.289 z"
     id="path4137"
     inkscape:connector-curvature="0"
     style="fill:#438383;stroke:#438383;stroke-width:3.50650001" /><path
     class="st16"
     d="m 867.23401,713.99261 c -2.034,-2.525 -2.174,-5.155 -0.491,-7.89 6.978,6.066 16.937,9.292 21.32,17.918 7.925,16.305 15.604,32.751 23.213,49.232 l -1.543,3.507 -2.665,-0.631 c -12.027,-21.39 -26.72,-41.307 -39.834,-62.136 z"
     id="path4139"
     inkscape:connector-curvature="0"
     style="fill:#8a4747;stroke:#8a4747;stroke-width:3.50650001" /><path
     class="st17"
     d="m 732.02401,717.57261 c 4.243,0.245 5.751,5.155 8.626,7.574 13.675,15.569 27.351,31.138 40.921,46.777 1.157,0.175 3.507,0.561 4.699,0.736 3.401,-9.959 3.787,-21.39 8.626,-30.542 9.608,2.595 14.657,15.218 22.652,21.565 l -0.14,1.192 c -1.718,9.187 -1.648,18.62 -0.14,27.842 2.77,16.796 1.262,33.908 0.807,50.845 -3.787,-8.872 -14.587,-17.392 -24.02,-11.081 -15.709,11.326 -15.008,42.219 4.243,49.583 6.838,2.7 12.343,-3.682 17.357,-7.224 0.526,18.725 -1.052,37.415 -0.807,56.14 0.21,6.277 -1.613,12.308 -3.507,18.199 -8.626,-16.27 -18.129,-33.593 -35.486,-41.903 -18.9,-10.87 -43.832,-5.295 -58.664,9.924 -17.743,15.639 -24.581,39.378 -28.228,61.926 -2.419,3.647 -2.735,9.538 -7.223,11.291 -21.53,6.698 -43.902,9.95899 -66.063,13.74599 -30.261,2.42 -60.874,-2.244 -90.96,2.56 2.244,-7.88999 4.313,-15.98999 2.104,-24.15999 1.052,-19.812 -0.245,-39.449 -6.347,-58.419 6.172,4.208 6.838,11.992 9.678,18.304 5.681,3.471 12.589,2.104 18.935,2.7 10.134,-0.07 20.128,6.277 30.191,1.999 9.362,-3.542 19.391,-2.034 29.139,-2.595 31.98,-6.312 64.205,-15.604 91.24,-34.504 11.817,-7.96 20.128,-19.812 30.647,-29.174 6.452,-4.523 17.077,1.508 21.635,-6.101 l 1.473,-2.805 c 6.662,-9.748 -6.662,-18.304 -4.488,-28.508 9.292,-29.876 -0.245,-63.889 -19.882,-87.173 -0.736,4.138 -1.543,8.311 -2.349,12.483 -3.997,1.613 -7.048,0.596 -9.152,-3.156 1.333,-0.351 3.962,-1.052 5.295,-1.403 2.946,-15.535 4.629,-31.524 9.188,-46.638 m 38.712,85.174 c -12.238,2.981 -11.922,18.725 -9.888,28.543 1.122,6.487 9.888,14.552 15.604,7.89 11.15,-8.486 9.783,-34.329 -5.716,-36.433 m -115.54,147.94 c 2.174,0.07 6.487,0.21 8.661,0.281 6.908,-3.857 2.069,-17.989 -6.312,-13.781 -7.012,0.421 -5.364,9.748 -2.349,13.5 z"
     id="path4141"
     inkscape:connector-curvature="0"
     style="fill:#509a9a;stroke:#509a9a;stroke-width:3.50650001" /><path
     class="st18"
     d="m 293.63401,752.39261 c 12.694,4.664 25.493,9.362 37.625,15.429 -4.699,3.857 -9.818,12.238 -3.261,16.972 -9.327,9.152 -13.009,21.776 -11.852,34.68 -1.858,-4.699 -2.805,-9.643 -3.682,-14.552 -2.805,6.312 -5.4,12.869 -9.888,18.234 -3.787,-23.424 -8.521,-47.023 -8.942,-70.763 z"
     id="path4143"
     inkscape:connector-curvature="0"
     style="fill:#3c7676;stroke:#3c7676;stroke-width:3.50650001" /><path
     class="st19"
     d="m 523.94401,758.31261 c 13.044,-2.034 25.808,-6.908 39.133,-6.312 18.585,5.575 39.764,5.4 55.403,18.515 13.605,7.224 22.933,20.618 27.351,35.171 4.874,16.656 -2.735,34.68 -15.464,45.62 -4.979,3.717 -12.133,0.035 -17.217,3.542 -2.42,3.507 -1.753,9.783 -7.013,10.73 -11.431,6.172 -24.756,3.927 -36.503,8.696 -7.013,2.104 -13.816,-1.718 -20.478,-3.261 -6.733,2.279 -9.608,12.168 -17.708,10.449 -8.837,-4.664 -18.269,-9.923 -22.512,-19.461 -4.278,-8.591 -14.973,-10.695 -19.777,-18.725 -12.904,-13.886 -35.171,-12.764 -49.162,-24.511 -0.701,-13.395 13.079,-19.987 20.478,-29.104 15.675,-18.48 39.309,-29.946 63.469,-31.349 z"
     id="path4145"
     inkscape:connector-curvature="0"
     style="fill:#5badad;stroke:#5badad;stroke-width:3.50650001" /><path
     class="st20"
     d="m 817.26401,792.71261 c -1.508,-9.222 -1.578,-18.655 0.14,-27.842 3.612,2.77 8.24,6.207 7.714,11.466 3.191,40.991 5.155,82.123 8.276,123.08 -6.873,46.532 -4.944,94.221 5.961,139.97999 4.909,18.83 0.105,40.921 -14.727,53.931 -3.577,-8.346 5.435,-15.253 6.943,-23.213 4.383,-18.725 -3.857,-37.275 -9.117,-54.948 l -2.63,0.421 c -3.156,26.334 -19.461,49.723 -41.868,63.258 -17.498,9.257 -38.081,5.155 -54.141,-5.085 1.157,-0.912 3.436,-2.735 4.558,-3.647 15.955,9.994 37.976,10.274 52.984,-1.648 36.258,-26.545 44.217,-78.79199 29.981,-119.28999 1.894,-5.891 3.717,-11.922 3.507,-18.199 -0.245,-18.725 1.332,-37.415 0.807,-56.14 3.471,-10.134 4.594,-20.759 2.419,-31.278 0.455,-16.935 1.963,-34.047 -0.807,-50.844 z"
     id="path4147"
     inkscape:connector-curvature="0"
     style="fill:#5caeae;stroke:#5caeae;stroke-width:3.50650001" /><path
     class="st21"
     d="m 327.99401,784.79261 c -6.557,-4.734 -1.438,-13.114 3.261,-16.972 7.82,2.244 15.043,6.242 22.582,9.362 -8.766,2.034 -18.199,2.21 -25.843,7.61 z"
     id="path4149"
     inkscape:connector-curvature="0"
     style="fill:#4f9a9a;stroke:#4f9a9a;stroke-width:3.50650001" /><path
     class="st22"
     d="m 353.84401,777.18261 c 1.297,0.07 3.927,0.21 5.225,0.316 4.559,7.995 15.078,11.221 17.147,21.004 8.907,19.987 -9.012,44.954 -30.787,42.885 -13.465,0.21 -24.441,-10.064 -29.28,-21.916 -1.157,-12.904 2.525,-25.528 11.852,-34.68 7.644,-5.4 17.077,-5.576 25.843,-7.609 z"
     id="path4151"
     inkscape:connector-curvature="0"
     style="fill:#284c4c;stroke:#284c4c;stroke-width:3.50650001" /><path
     class="st22"
     d="m 770.73401,802.74261 c 15.499,2.104 16.866,27.947 5.716,36.433 -5.716,6.662 -14.482,-1.403 -15.604,-7.89 -2.034,-9.818 -2.35,-25.562 9.888,-28.543 z"
     id="path4153"
     inkscape:connector-curvature="0"
     style="fill:#284c4c;stroke:#284c4c;stroke-width:3.50650001" /><path
     class="st22"
     d="m 398.97401,805.76261 c 7.644,-3.121 17.007,4.909 13.255,12.834 -2.069,8.801 -16.691,8.907 -18.76,0.035 -2.14,-4.874 0.385,-11.256 5.505,-12.869 z"
     id="path4155"
     inkscape:connector-curvature="0"
     style="fill:#284c4c;stroke:#284c4c;stroke-width:3.50650001" /><path
     class="st20"
     d="m 688.15401,828.23261 c 4.278,-6.978 14.026,-7.714 21.039,-4.874 21.25,8.31 36.819,27.351 44.218,48.601 l -1.473,2.805 c -11.642,-0.912 -24.23,-2.349 -34.995,3.226 -9.222,6.557 -17.357,14.622 -26.93,20.759 -9.608,-10.134 -7.96,-24.932 -8.1,-37.73 -0.386,-11.222 0.876,-22.794 6.241,-32.787 z"
     id="path4157"
     inkscape:connector-curvature="0"
     style="fill:#5caeae;stroke:#5caeae;stroke-width:3.50650001" /><path
     class="st22"
     d="m 794.05401,832.48261 c 9.433,-6.312 20.233,2.209 24.02,11.081 2.174,10.52 1.052,21.144 -2.419,31.278 -5.014,3.542 -10.52,9.924 -17.357,7.224 -19.252,-7.365 -19.954,-38.257 -4.244,-49.583 z"
     id="path4159"
     inkscape:connector-curvature="0"
     style="fill:#284c4c;stroke:#284c4c;stroke-width:3.50650001" /><path
     class="st18"
     d="m 266.17401,847.06261 c 7.013,7.96 14.377,16.831 19.005,26.089 -13.15,18.444 -16.165,42.184 -21.811,63.749 -3.086,9.222 -3.086,19.005 -2.384,28.578 l -4.453,0.316 c 2.279,-39.66 7.118,-79.108 9.643,-118.73 z"
     id="path4161"
     inkscape:connector-curvature="0"
     style="fill:#3c7676;stroke:#3c7676;stroke-width:3.50650001" /><path
     class="st23"
     d="m 332.87401,872.80261 c 29.455,-23.213 70.096,-32.996 106.32,-21.67 37.169,8.836 66.554,38.537 81.282,73.006 6.101,18.97 7.399,38.607 6.347,58.419 -4.909,15.429 -8.065,31.80399 -17.638,45.26899 -7.399,13.851 -19.356,24.09 -30.261,35.065 -26.895,19.531 -61.785,28.718 -94.606,21.425 -55.228,-9.573 -98.358,-62.592 -97.271,-118.48999 -0.666,-21.004 6.242,-41.517 16.586,-59.576 0.105,-1.858 0.351,-5.61 0.456,-7.469 2.805,3.647 4.839,8.205 9.152,10.344 -0.526,-5.33 -1.368,-10.625 -1.964,-15.92 7.258,-6.697 13.745,-14.341 21.599,-20.407 m 70.236,-2.595 c -34.189,5.681 -64.24,33.137 -70.972,67.501 -8.696,35.241 8.521,74.79399 39.659,93.20399 22.722,14.166 51.897,17.077 76.793,7.153 26.86,-9.853 47.689,-34.189 53.825,-62.13599 7.925,-31.874 -4.629,-67.641 -30.647,-87.664 -18.865,-15.709 -44.533,-21.705 -68.658,-18.058 z"
     id="path4163"
     inkscape:connector-curvature="0"
     style="fill:#326060;stroke:#326060;stroke-width:3.50650001" /><path
     class="st24"
     d="m 615.88401,857.83261 c 5.505,-1.438 7.364,0.596 5.575,6.101 -5.996,1.929 -7.854,-0.105 -5.575,-6.101 z"
     id="path4165"
     inkscape:connector-curvature="0"
     style="fill:#3a6f6f;stroke:#3a6f6f;stroke-width:3.50650001" /><path
     class="st25"
     d="m 403.10401,870.21261 c 24.125,-3.647 49.793,2.349 68.658,18.059 26.019,20.022 38.572,55.789 30.647,87.664 -6.136,27.94699 -26.965,52.28299 -53.825,62.13599 -24.896,9.924 -54.071,7.013 -76.793,-7.153 -31.138,-18.409 -48.355,-57.96299 -39.659,-93.20399 6.732,-34.365 36.784,-61.821 70.972,-67.502 m 27.597,33.382 c 13.079,20.128 3.507,49.933 -18.55,59.015 -10.765,5.295 -23.073,2.7 -34.294,0.561 -0.631,33.452 37.941,56.06999 68.658,47.37299 -0.771,-7.364 -4.523,-16.26999 3.086,-21.42499 6.627,-8.801 17.217,-2.946 24.896,0.666 7.89,-5.295 9.433,-15.394 11.677,-23.915 5.646,-26.965 -12.588,-55.789 -39.238,-62.557 -5.225,-0.559 -12.378,-5.433 -16.235,0.282 z"
     id="path4167"
     inkscape:connector-curvature="0"
     style="fill:#ffffff;stroke:#ffffff;stroke-width:3.50650001" /><path
     class="st26"
     d="m 263.37401,936.90261 c 5.645,-21.565 8.661,-45.305 21.811,-63.749 7.118,7.925 12.448,17.182 18.9,25.633 -8.942,4.909 -11.116,15.569 -15.709,23.915 -9.888,21.39 -9.257,45.269 -8.766,68.237 -14.307,-0.351 -13.956,-15.709 -18.62,-25.457 -0.702,-9.573 -0.702,-19.356 2.384,-28.579 z"
     id="path4169"
     inkscape:connector-curvature="0"
     style="fill:#4a9191;stroke:#4a9191;stroke-width:3.50650001" /><path
     class="st22"
     d="m 616.58401,896.79261 c 8.451,-5.891 23.038,-1.578 24.651,9.468 2.805,10.695 -7.364,21.776 -18.339,19.286 -13.851,-1.333 -18.76,-21.917 -6.312,-28.754 z"
     id="path4171"
     inkscape:connector-curvature="0"
     style="fill:#284c4c;stroke:#284c4c;stroke-width:3.50650001" /><path
     class="st19"
     d="m 288.37401,922.70261 c 4.594,-8.346 6.768,-19.005 15.709,-23.915 -0.105,1.858 -0.351,5.61 -0.456,7.469 -10.344,18.059 -17.252,38.572 -16.586,59.576 -1.087,55.89399 42.043,108.90999 97.271,118.48999 32.821,7.294 67.711,-1.894 94.606,-21.425 l 2.63,2.034 c -2.805,5.716 -9.012,8.591 -13.64,12.624 -31.243,17.743 -70.341,23.213 -104.42,10.485 -43.586,-13.079 -75.285,-53.124 -83.876,-97.09599 -0.49,-22.969 -1.121,-46.848 8.767,-68.238 z"
     id="path4173"
     inkscape:connector-curvature="0"
     style="fill:#5badad;stroke:#5badad;stroke-width:3.50650001" /><path
     class="st27"
     d="m 430.70401,903.59261 c 3.857,-5.716 11.011,-0.842 16.235,-0.281 26.65,6.768 44.884,35.591 39.238,62.557 -2.244,8.521 -3.787,18.62 -11.677,23.915 -7.679,-3.612 -18.269,-9.468 -24.896,-0.666 -7.609,5.155 -3.857,14.06099 -3.086,21.42499 -30.717,8.696 -69.289,-13.92099 -68.658,-47.37299 11.221,2.139 23.529,4.734 34.294,-0.561 22.056,-9.083 31.629,-38.888 18.55,-59.016 z"
     id="path4175"
     inkscape:connector-curvature="0"
     style="fill:#e6e6e6;stroke:#e6e6e6;stroke-width:3.50650001" /><path
     class="st20"
     d="m 133.87401,908.08261 c 22.161,-8.521 48.355,-10.309 70.306,-0.631 0.245,2.384 0.701,7.188 0.947,9.573 -54.211,-19.707 -116.98,21.425 -126.02,77.074 -3.086,11.74699 1.508,24.51099 -3.261,35.83699 -17.182,-47.37399 10.975,-104.49999 58.033,-121.84999 z"
     id="path4177"
     inkscape:connector-curvature="0"
     style="fill:#5caeae;stroke:#5caeae;stroke-width:3.50650001" /><path
     class="st23"
     d="m 717.18401,917.20261 c 14.833,-15.218 39.764,-20.794 58.664,-9.924 17.357,8.311 26.86,25.633 35.486,41.903 14.237,40.501 6.277,92.74799 -29.981,119.28999 -15.008,11.922 -37.029,11.642 -52.984,1.648 -29.665,-19.742 -40.29,-57.051 -39.414,-90.99499 3.648,-22.547 10.486,-46.286 28.229,-61.925 m 18.865,1.858 c -9.748,2.244 -18.024,8.907 -24.16,16.656 -24.686,32.576 -18.795,90.53899 20.899,108.55999 15.359,5.12 32.155,-1.403 42.008,-13.746 20.128,-25.493 21.565,-63.92399 4.243,-91.20499 -8.591,-14.482 -26.018,-24.406 -42.99,-20.268 z"
     id="path4179"
     inkscape:connector-curvature="0"
     style="fill:#326060;stroke:#326060;stroke-width:3.50650001" /><path
     class="st20"
     d="m 855.31401,907.45261 c 49.127,17.463 77.53,77.845 57.823,126.47999 -2.805,-5.961 -1.017,-12.448 -0.526,-18.655 1.403,-33.31199 -14.938,-67.60599 -43.481,-85.48899 -5.646,-3.857 -13.044,-5.575 -16.831,-11.712 l -0.351,-4.699 c 0.841,-1.472 2.524,-4.418 3.366,-5.926 z"
     id="path4181"
     inkscape:connector-curvature="0"
     style="fill:#5caeae;stroke:#5caeae;stroke-width:3.50650001" /><path
     class="st28"
     d="m 79.10301,994.09261 c 9.047,-55.649 71.814,-96.781 126.02,-77.074 l 1.753,0.912 c 1.648,11.431 6.417,22.617 6.522,34.119 -21.32,-11.501 -48.495,-14.763 -70.131,-2.384 -8.205,7.013 -17.533,14.342 -20.163,25.387 -15.569,43.16599 12.098,95.79899 56.245,108.03999 9.012,2.981 19.146,3.121 26.965,9.082 -17.042,9.748 -38.852,10.45 -57.788,5.61 -33.487,-7.434 -60.733,-33.768 -73.181,-65.222 l 0.491,-2.63 c 4.77,-11.325 0.176,-24.089 3.262,-35.83599 z"
     id="path4183"
     inkscape:connector-curvature="0"
     style="fill:#458989;stroke:#458989;stroke-width:3.50650001" /><path
     class="st25"
     d="m 736.05401,919.05261 c 16.972,-4.138 34.399,5.786 42.99,20.268 17.322,27.281 15.885,65.71299 -4.243,91.20499 -9.853,12.343 -26.65,18.865 -42.008,13.746 -39.694,-18.024 -45.585,-75.98699 -20.899,-108.55999 6.137,-7.749 14.412,-14.412 24.16,-16.656 m 16.691,22.723 c -0.351,8.346 3.857,16.656 1.192,25.002 -2.034,13.325 -15.394,25.563 -29.28,21.635 -3.997,5.61 1.823,13.21999 4.068,18.82999 4.523,11.572 17.919,17.603 29.736,14.307 0.841,-5.295 0.666,-10.73 2.209,-15.885 4.839,-5.014 10.66,-2.56 14.903,1.543 7.82,-16.55099 7.925,-36.43299 -1.227,-52.38799 -5.33,-6.417 -12.764,-13.325 -21.601,-13.044 z"
     id="path4185"
     inkscape:connector-curvature="0"
     style="fill:#ffffff;stroke:#ffffff;stroke-width:3.50650001" /><path
     class="st28"
     d="m 851.24401,916.81261 1.052,1.262 c 3.787,6.136 11.186,7.855 16.831,11.712 28.543,17.883 44.884,52.177 43.481,85.48899 -0.491,6.207 -2.279,12.694 0.526,18.655 l 0.386,1.999 c -12.413,27.351 -35.872,53.51 -66.309,59.19 1.508,-9.257 7.609,-17.217 9.888,-26.369 5.47,-7.399 0.982,-17.077 4.032,-25.177 6.978,-18.55 13.921,-38.747 9.082,-58.73399 -4.138,-14.237 -10.379,-29.525 -24.23,-36.854 -0.419,-10.59 3.403,-20.864 5.261,-31.173 z"
     id="path4187"
     inkscape:connector-curvature="0"
     style="fill:#458989;stroke:#458989;stroke-width:3.50650001" /><path
     class="st29"
     d="m 655.19401,950.68261 c -3.016,-3.752 -4.664,-13.079 2.349,-13.5 8.381,-4.208 13.22,9.924 6.312,13.781 -2.173,-0.07 -6.486,-0.211 -8.661,-0.281 z"
     id="path4189"
     inkscape:connector-curvature="0"
     style="fill:#305c5c;stroke:#305c5c;stroke-width:3.50650001" /><path
     class="st18"
     d="m 143.27401,949.66261 c 21.635,-12.378 48.811,-9.117 70.131,2.384 10.52,34.399 15.85,70.37599 25.072,105.19999 2.77,9.082 1.999,19.672 7.609,27.632 3.226,-33.908 4.523,-68.483 9.994,-101.85999 4.664,11.536 4.734,24.15999 7.96,36.04699 3.577,15.113 10.905,29.665 21.986,40.676 -8.907,1.122 -17.533,7.714 -13.115,17.603 4.909,11.642 20.829,7.785 24.195,-2.981 15.674,13.5 33.698,23.389 52.212,32.365 -3.682,6.452 -8.872,13.851 -5.049,21.495 3.331,11.607 17.357,15.85 27.596,10.87 7.644,-4.664 9.818,-14.166 9.433,-22.547 10.204,8.205 23.809,8.591 35.591,13.15 0.491,3.051 -0.316,6.838 2.174,9.222 -10.835,6.382 -20.829,17.252 -34.434,16.235 -31.454,-3.121 -61.961,-12.553 -92.643,-19.882 -25.528,-6.557 -50.424,-17.322 -70.517,-34.645 -2.244,-3.296 -3.577,-6.943 -4.033,-10.87 -3.051,0.842 -5.961,1.929 -8.837,3.226 l -2.279,-0.807 c -7.82,-5.961 -17.953,-6.101 -26.965,-9.082 -44.147,-12.238 -71.814,-64.871 -56.245,-108.03999 2.631,-11.044 11.958,-18.373 20.164,-25.386 m 178.87,154.10999 c -5.961,3.086 -10.414,10.73 -4.138,16.025 5.786,7.89 17.954,-0.456 15.955,-8.696 -2.77,-3.788 -6.452,-8.697 -11.817,-7.329 z"
     id="path4191"
     inkscape:connector-curvature="0"
     style="fill:#3c7676;stroke:#3c7676;stroke-width:3.50650001" /><path
     class="st27"
     d="m 752.74401,941.78261 c 8.836,-0.281 16.27,6.627 21.6,13.044 9.152,15.955 9.047,35.837 1.227,52.38799 -4.243,-4.103 -10.064,-6.557 -14.903,-1.543 -1.543,5.155 -1.368,10.59 -2.209,15.885 -11.817,3.296 -25.212,-2.735 -29.736,-14.307 -2.244,-5.61 -8.065,-13.21999 -4.068,-18.82999 13.886,3.927 27.246,-8.31 29.28,-21.635 2.667,-8.346 -1.541,-16.657 -1.191,-25.002 z"
     id="path4193"
     inkscape:connector-curvature="0"
     style="fill:#e6e6e6;stroke:#e6e6e6;stroke-width:3.50650001" /><path
     class="st18"
     d="m 845.98401,947.98261 c 13.851,7.329 20.093,22.617 24.23,36.854 4.839,19.98699 -2.104,40.18499 -9.082,58.73399 -3.051,8.1 1.438,17.778 -4.032,25.177 2.384,-26.685 -8.1,-52.002 -9.713,-78.33599 -1.648,-14.061 -2.84,-28.368 -1.403,-42.429 z"
     id="path4195"
     inkscape:connector-curvature="0"
     style="fill:#3c7676;stroke:#3c7676;stroke-width:3.50650001" /><path
     class="st28"
     d="m 256.53401,965.80261 4.453,-0.316 c 4.664,9.748 4.313,25.107 18.62,25.457 8.591,43.97199 40.29,84.01699 83.876,97.09599 34.084,12.729 73.182,7.259 104.42,-10.485 15.464,-1.227 30.086,4.909 45.445,4.348 1.333,0.982 3.997,2.911 5.33,3.857 -25.317,9.959 -53.37,16.446 -74.689,33.908 l 3.647,1.227 c -9.117,6.662 -19.286,11.642 -28.578,18.024 -2.49,-2.384 -1.683,-6.172 -2.174,-9.222 -11.782,-4.558 -25.387,-4.944 -35.591,-13.15 -4.979,-13.044 -20.513,-15.815 -31.98,-9.818 -18.515,-8.977 -36.538,-18.865 -52.212,-32.365 -1.858,-6.172 -5.61,-11.256 -11.081,-14.622 -11.081,-11.01 -18.409,-25.563 -21.986,-40.676 -3.226,-11.887 -3.296,-24.51099 -7.96,-36.04699 -1.228,-5.679 0.245,-11.535 0.455,-17.216 z"
     id="path4197"
     inkscape:connector-curvature="0"
     style="fill:#458989;stroke:#458989;stroke-width:3.50650001" /><path
     class="st26"
     d="m 681.73401,990.41261 c 4.488,-1.753 4.804,-7.644 7.223,-11.291 -0.877,33.94299 9.748,71.25299 39.414,90.99499 -1.122,0.912 -3.401,2.735 -4.558,3.647 -3.717,-1.367 -7.153,-5.12 -11.361,-4.068 -16.27,4.278 -32.856,7.188 -49.302,10.66 -6.732,1.894 -15.429,-1.157 -20.373,5.12 -11.747,-0.316 -22.793,-4.734 -34.329,-6.031 -16.411,-0.245 -32.786,0.245 -49.162,-0.105 -13.886,-0.14 -26.79,7.224 -40.606,6.417 -1.332,-0.947 -3.997,-2.875 -5.33,-3.857 -15.359,0.561 -29.981,-5.575 -45.445,-4.348 4.629,-4.032 10.835,-6.908 13.64,-12.624 l -2.63,-2.034 c 10.905,-10.976 22.863,-21.215 30.261,-35.065 9.573,-13.465 12.729,-29.84099 17.638,-45.26899 2.209,8.17 0.14,16.27 -2.104,24.15999 30.086,-4.804 60.698,-0.14 90.96,-2.56 22.162,-3.788 44.534,-7.04899 66.064,-13.74699 z"
     id="path4199"
     inkscape:connector-curvature="0"
     style="fill:#4a9191;stroke:#4a9191;stroke-width:3.50650001" /><path
     class="st28"
     d="m 819.82401,1015.5926 2.63,-0.421 c 5.26,17.673 13.5,36.223 9.117,54.948 -1.508,7.96 -10.52,14.868 -6.943,23.213 l 0.421,1.613 c -11.291,10.905 -24.055,20.373 -38.326,27.035 -2.56,-6.031 -1.613,-15.885 -9.117,-18.129 -4.804,2.034 -6.172,7.434 -7.749,11.887 -15.99,6.943 -34.364,6.487 -49.547,15.569 -12.098,-9.187 -25.843,-15.814 -38.362,-24.37 0.701,-0.912 2.104,-2.735 2.805,-3.682 -13.009,-7.819 -27.631,-12.939 -41.973,-17.778 4.944,-6.277 13.64,-3.226 20.373,-5.12 16.446,-3.471 33.032,-6.382 49.302,-10.66 4.208,-1.052 7.644,2.7 11.361,4.068 16.06,10.239 36.643,14.342 54.141,5.085 22.405,-13.535 38.711,-36.924 41.867,-63.258 m -27.597,67.571 c -4.699,6.873 -3.717,20.724 5.505,23.143 12.624,-3.331 8.837,-32.751 -5.505,-23.143 z"
     id="path4201"
     inkscape:connector-curvature="0"
     style="fill:#458989;stroke:#458989;stroke-width:3.50650001" /><path
     class="st22"
     d="m 272.91401,1077.3426 c -4.418,-9.888 4.208,-16.481 13.115,-17.603 5.47,3.366 9.222,8.451 11.081,14.622 -3.367,10.766 -19.286,14.623 -24.196,2.981 z"
     id="path4203"
     inkscape:connector-curvature="0"
     style="fill:#284c4c;stroke:#284c4c;stroke-width:3.50650001" /><path
     class="st19"
     d="m 518.68401,1085.7526 c 13.816,0.807 26.72,-6.557 40.606,-6.417 16.376,0.351 32.751,-0.14 49.162,0.105 11.537,1.297 22.582,5.716 34.329,6.031 14.342,4.839 28.964,9.959 41.973,17.778 -0.701,0.947 -2.104,2.77 -2.805,3.682 -42.99,-21.215 -93.029,-28.754 -140.12,-19.111 -33.067,5.4 -64.415,18.059 -94.186,33.067 l -3.647,-1.227 c 21.319,-17.462 49.372,-23.949 74.689,-33.908 z"
     id="path4205"
     inkscape:connector-curvature="0"
     style="fill:#5badad;stroke:#5badad;stroke-width:3.50650001" /><path
     class="st22"
     d="m 792.22401,1083.1626 c 14.342,-9.608 18.129,19.812 5.505,23.143 -9.222,-2.419 -10.204,-16.27 -5.505,-23.143 z"
     id="path4207"
     inkscape:connector-curvature="0"
     style="fill:#284c4c;stroke:#284c4c;stroke-width:3.50650001" /><path
     class="st23"
     d="m 541.82401,1087.8226 c 47.093,-9.643 97.131,-2.104 140.12,19.111 12.518,8.556 26.264,15.183 38.362,24.37 4.453,5.681 10.905,8.837 17.603,11.186 -14.622,6.347 -32.611,11.607 -49.021,15.148 3.787,-2.209 7.785,-3.857 11.782,-5.575 0.666,-5.12 -4.629,-7.679 -7.749,-10.59 -38.291,-30.296 -89.066,-42.394 -137.14,-37.836 -39.343,0.806 -77.845,14.412 -110.28,36.433 -8.31,6.382 -17.533,12.203 -23.213,21.215 -12.764,2.384 -24.406,-4.664 -37.099,-3.857 l -0.561,-2.279 c 13.605,1.017 23.599,-9.853 34.434,-16.235 9.292,-6.382 19.461,-11.361 28.578,-18.024 29.77,-15.008 61.118,-27.667 94.185,-33.067 z"
     id="path4209"
     inkscape:connector-curvature="0"
     style="fill:#326060;stroke:#326060;stroke-width:3.50650001" /><path
     class="st22"
     d="m 322.14401,1103.7826 c 5.365,-1.367 9.047,3.542 11.817,7.329 1.999,8.24 -10.169,16.586 -15.955,8.696 -6.276,-5.295 -1.823,-12.94 4.138,-16.025 z"
     id="path4211"
     inkscape:connector-curvature="0"
     style="fill:#284c4c;stroke:#284c4c;stroke-width:3.50650001" /><path
     class="st22"
     d="m 349.31401,1106.7226 c 11.466,-5.996 27,-3.226 31.98,9.818 0.386,8.381 -1.788,17.883 -9.433,22.547 -10.239,4.979 -24.265,0.736 -27.596,-10.87 -3.823,-7.644 1.367,-15.043 5.049,-21.495 z"
     id="path4213"
     inkscape:connector-curvature="0"
     style="fill:#284c4c;stroke:#284c4c;stroke-width:3.50650001" /><path
     class="st30"
     d="m 445.50401,1140.0726 c 32.436,-22.021 70.937,-35.626 110.28,-36.433 48.075,-4.559 98.849,7.539 137.14,37.836 3.121,2.91 8.416,5.47 7.749,10.59 -3.997,1.718 -7.995,3.366 -11.782,5.575 -2.525,0.175 -7.574,0.561 -10.099,0.736 -2.595,-6.592 1.613,-13.921 0.736,-20.899 -13.079,-7.399 -28.368,-11.607 -42.675,-16.586 -18.199,-6.978 -38.607,-5.26 -56.525,-12.518 -23.844,-2.525 -47.514,1.753 -70.446,7.855 -5.225,0.245 -6.101,5.681 -9.257,8.626 -9.994,2.104 -19.531,5.891 -29.245,8.977 -2.034,10.975 0.912,22.863 2.49,34.048 -8.17,1.297 -16.516,-0.21 -24.616,-1.297 -8.521,-3.857 -19.041,-0.07 -26.965,-5.295 5.681,-9.012 14.903,-14.833 23.213,-21.215 z"
     id="path4215"
     inkscape:connector-curvature="0"
     style="fill:#de4256;stroke:#de4256;stroke-width:3.50650001" /><path
     class="st22"
     d="m 777.60401,1103.8526 c 7.504,2.244 6.557,12.097 9.117,18.129 l 0.245,1.578 c -3.156,1.403 -6.347,2.63 -9.608,3.612 -2.314,-3.927 -4.804,-7.749 -7.504,-11.431 1.578,-4.454 2.946,-9.854 7.75,-11.888 z"
     id="path4217"
     inkscape:connector-curvature="0"
     style="fill:#284c4c;stroke:#284c4c;stroke-width:3.50650001" /><path
     class="st31"
     d="m 512.26401,1123.0326 c 23.038,-4.523 49.162,-13.675 71.253,-3.962 -0.07,15.955 2.455,31.874 0.771,47.829 -1.578,0.07 -4.734,0.281 -6.277,0.351 -0.596,6.803 0.596,13.675 -0.491,20.478 -5.225,1.858 -10.309,-0.386 -15.218,-1.929 1.753,-0.771 5.26,-2.279 7.013,-3.051 1.017,-20.618 2.244,-41.623 -0.105,-62.136 -8.065,-2.525 -17.883,-2.665 -25.247,1.894 -2.525,19.496 -7.749,38.642 -9.047,58.279 -5.54,-1.438 -11.572,-1.753 -16.516,-4.804 -0.596,-3.962 -1.262,-7.925 -1.999,-11.817 -3.261,0.281 -6.522,0.771 -9.783,0.631 8.065,-7.013 1.333,-17.954 4.383,-26.895 2.315,-4.77 -1.086,-10.1 1.263,-14.868 z"
     id="path4219"
     inkscape:connector-curvature="0"
     style="fill:#fff6df;stroke:#fff6df;stroke-width:3.50650001" /><path
     class="st18"
     d="m 720.31401,1131.3026 c 15.183,-9.082 33.558,-8.626 49.547,-15.569 2.7,3.682 5.19,7.504 7.504,11.431 -12.764,6.031 -25.808,11.712 -39.449,15.324 -6.697,-2.349 -13.149,-5.505 -17.602,-11.186 z"
     id="path4221"
     inkscape:connector-curvature="0"
     style="fill:#3c7676;stroke:#3c7676;stroke-width:3.50650001" /><path
     class="st25"
     d="m 543.96401,1122.5026 c 7.364,-4.559 17.182,-4.418 25.247,-1.894 2.349,20.513 1.122,41.517 0.105,62.136 -1.753,0.771 -5.26,2.279 -7.013,3.051 -9.152,-1.718 -18.094,-4.278 -27.386,-5.014 1.298,-19.637 6.522,-38.783 9.047,-58.279 z"
     id="path4225"
     inkscape:connector-curvature="0"
     style="fill:#ffffff;stroke:#ffffff;stroke-width:3.50650001" /><path
     class="st25"
     d="m 583.51401,1119.0726 c 7.399,-0.386 14.622,0.631 21.811,2.244 0.842,14.237 -1.858,28.473 0.456,42.64 -6.698,3.507 -14.201,3.296 -21.495,2.945 1.682,-15.954 -0.842,-31.874 -0.772,-47.829 z"
     id="path4227"
     inkscape:connector-curvature="0"
     style="fill:#ffffff;stroke:#ffffff;stroke-width:3.50650001" /><path
     class="st31"
     d="m 605.33401,1121.3126 c 13.5,1.297 25.808,6.207 38.888,9.012 l -0.877,1.508 c -5.435,8.907 -3.261,19.952 -5.4,29.841 4.383,0.982 8.766,1.858 13.22,2.63 -7.188,2.034 -14.727,4.523 -22.231,2.525 -0.14,-2.91 -0.456,-8.696 -0.596,-11.572 -0.631,1.858 -1.893,5.61 -2.525,7.469 -6.417,2.244 -13.395,1.192 -20.022,1.227 -2.315,-14.166 0.385,-28.403 -0.457,-42.64 z"
     id="path4229"
     inkscape:connector-curvature="0"
     style="fill:#fff6df;stroke:#fff6df;stroke-width:3.50650001" /><path
     class="st25"
     d="m 502.44401,1132.0026 c 2.069,-0.491 6.277,-1.473 8.346,-1.964 0.07,1.964 0.175,5.891 0.21,7.855 -3.051,8.942 3.682,19.882 -4.383,26.895 -5.19,-0.526 -10.169,-1.823 -14.938,-3.787 3.015,-9.923 4.418,-20.478 10.765,-28.999 z"
     id="path4231"
     inkscape:connector-curvature="0"
     style="fill:#ffffff;stroke:#ffffff;stroke-width:3.50650001" /><path
     class="st31"
     d="m 481.19401,1137.3426 c 7.644,0.105 13.711,-5.26 21.25,-5.33 -6.347,8.521 -7.749,19.076 -10.765,28.999 -2.49,-0.351 -7.504,-1.052 -9.994,-1.403 -2.244,-7.258 -1.824,-14.937 -0.491,-22.266 z"
     id="path4235"
     inkscape:connector-curvature="0"
     style="fill:#fff6df;stroke:#fff6df;stroke-width:3.50650001" /><path
     class="st25"
     d="m 637.94401,1161.6726 c 2.139,-9.888 -0.035,-20.934 5.4,-29.841 2.875,0.561 8.661,1.613 11.537,2.139 l -0.175,2.875 c -0.877,9.117 1.403,18.059 3.016,26.965 -1.648,0.105 -4.909,0.351 -6.557,0.491 -4.454,-0.771 -8.838,-1.648 -13.221,-2.629 z"
     id="path4237"
     inkscape:connector-curvature="0"
     style="fill:#ffffff;stroke:#ffffff;stroke-width:3.50650001" /><path
     class="st34"
     d="m 477.23401,1139.4726 c 0.982,-0.526 2.945,-1.613 3.962,-2.139 -1.333,7.329 -1.753,15.008 0.491,22.267 2.49,0.351 7.504,1.052 9.994,1.403 4.769,1.964 9.748,3.261 14.938,3.787 3.261,0.14 6.522,-0.351 9.783,-0.631 0.736,3.892 1.403,7.855 1.999,11.817 4.944,3.051 10.975,3.366 16.516,4.804 9.292,0.736 18.234,3.296 27.386,5.014 4.909,1.543 9.994,3.787 15.218,1.929 1.087,-6.803 -0.105,-13.676 0.491,-20.478 1.543,-0.07 4.699,-0.28 6.277,-0.351 7.294,0.351 14.798,0.561 21.495,-2.945 6.627,-0.035 13.605,1.017 20.022,-1.227 0.631,-1.858 1.894,-5.61 2.525,-7.469 0.14,2.875 0.456,8.661 0.596,11.572 7.504,1.999 15.043,-0.491 22.231,-2.525 1.648,-0.14 4.909,-0.386 6.557,-0.491 2.525,-0.351 7.574,-1.052 10.064,-1.368 1.122,-6.101 1.894,-12.238 3.401,-18.234 2.419,6.557 -0.245,13.5 -0.771,20.198 -13.711,3.507 -28.122,3.507 -41.833,7.083 -0.877,-1.332 -2.665,-4.032 -3.577,-5.4 -14.587,1.858 -29.35,2.349 -43.937,4.138 -2.84,6.207 -0.105,13.465 -0.947,20.128 -18.935,0.561 -38.852,-6.312 -58.173,-8.836 -7.224,0.386 -6.207,-7.469 -7.259,-12.203 -11.431,-3.542 -23.985,-2.98 -34.96,-7.364 -1.893,-7.225 -0.876,-15.08 -2.489,-22.479 z"
     id="path4239"
     inkscape:connector-curvature="0"
     style="fill:#a29c8f;stroke:#a29c8f;stroke-width:3.50650001" /><path
     class="st31"
     d="m 654.70401,1136.8426 2.244,-1.473 c 4.664,2.525 9.573,4.348 14.763,5.505 l -0.526,3.331 c -1.508,5.996 -2.279,12.133 -3.401,18.234 -2.49,0.316 -7.539,1.017 -10.064,1.368 -1.614,-8.906 -3.893,-17.848 -3.016,-26.965 z"
     id="path4241"
     inkscape:connector-curvature="0"
     style="fill:#fff6df;stroke:#fff6df;stroke-width:3.50650001" /><path
     class="st42"
     d="m 495.22401,1174.2226 c 3.086,0 9.187,-0.035 12.238,-0.035 3.226,3.892 0.105,11.291 6.522,12.834 24.511,3.191 48.671,10.344 73.217,12.098 l -0.21,1.823 c -2.314,0.386 -7.013,1.157 -9.327,1.578 -0.841,4.103 -1.508,8.275 -1.999,12.448 -8.801,0.14 -17.638,-0.421 -26.369,0.596 -3.682,2.174 -6.066,6.803 -10.66,7.118 -4.874,-2.945 -9.152,-8.1 -15.429,-7.224 0.175,2.735 -0.526,5.014 -2.104,6.838 -8.311,-6.557 -15.955,-14.131 -19.146,-24.511 -3.261,5.54 -2.945,12.238 -3.997,18.444 -3.998,-13.674 -2.315,-27.981 -2.736,-42.007 z"
     id="path4257"
     inkscape:connector-curvature="0"
     style="fill:#df4757;stroke:#df4757;stroke-width:3.50650001" /><path
     class="st43"
     d="m 588.07401,1176.8226 c 7.679,-2.945 16.411,-1.227 24.476,-2.875 9.257,10.134 23.774,-0.21 35.381,1.648 0.561,15.043 0.982,30.367 -3.016,45.024 l -2.209,1.052 c -0.21,-5.61 -0.07,-11.186 -0.386,-16.761 -3.577,5.681 -5.435,12.238 -8.451,18.199 -9.327,-1.297 -20.443,-4.488 -27.456,3.822 -7.504,-10.204 -19.812,-3.682 -29.42,-1.262 -0.316,-2.665 -1.017,-7.995 -1.332,-10.695 0.491,-4.173 1.157,-8.346 1.999,-12.448 2.314,-0.421 7.013,-1.192 9.327,-1.578 l 0.21,-1.823 c 0.211,-7.33 -2.314,-15.535 0.877,-22.303 z"
     id="path4259"
     inkscape:connector-curvature="0"
     style="fill:#df4656;stroke:#df4656;stroke-width:3.50650001" /><path
     class="st45"
     d="m 497.96001,1216.2296 c 1.052,-6.207 0.736,-12.904 3.997,-18.444 3.191,10.379 10.835,17.954 19.146,24.511 1.578,-1.823 2.279,-4.103 2.104,-6.838 6.277,-0.877 10.555,4.278 15.429,7.224 4.594,-0.316 6.978,-4.944 10.66,-7.118 8.731,-1.017 17.568,-0.456 26.369,-0.596 0.316,2.7 1.017,8.03 1.332,10.695 9.608,-2.42 21.916,-8.942 29.42,1.262 7.013,-8.311 18.129,-5.12 27.456,-3.822 -16.972,33.277 -63.538,44.743 -95.729,27.246 -15.394,-6.768 -25.598,-20.618 -33.487,-34.925 -0.666,2.77 -2.034,8.275 -2.7,11.046 -2.349,-2.982 -3.962,-6.418 -3.997,-10.241 z"
     id="path4265"
     inkscape:connector-curvature="0"
     style="fill:#e15261;stroke:#e15261;stroke-width:3.50650001" /><path
     class="st46"
     d="m 633.87201,1223.1046 c 3.016,-5.961 4.874,-12.518 8.451,-18.199 0.316,5.575 0.175,11.151 0.386,16.761 -3.647,19.005 -19.461,34.294 -35.907,43.656 -22.196,10.8 -49.933,11.677 -71.884,-1.122 -14.587,-8.486 -27.386,-21.776 -32.961,-37.73 0.666,-2.77 2.034,-8.276 2.7,-11.046 7.89,14.307 18.094,28.158 33.487,34.925 32.189,17.499 78.756,6.032 95.728,-27.245 z"
     id="path4267"
     inkscape:connector-curvature="0"
     style="fill:#e87582;stroke:#e87582;stroke-width:3.50650001" /></svg>